<svg width="85" height="85" viewBox="0 0 85 85" fill="none" xmlns="http://www.w3.org/2000/svg">
<circle cx="42.5" cy="42.5" r="42.5" fill="white"/>
<circle cx="42.5" cy="42.501" r="9.5" fill="#171C35"/>
<path d="M9.94582 44.0613C8.94739 43.2607 8.94739 41.7413 9.94582 40.9407L18.2488 34.2827C19.558 33.2329 21.5 34.1649 21.5 35.843L21.5 49.1589C21.5 50.837 19.558 51.769 18.2488 50.7193L9.94582 44.0613Z" fill="#171C35"/>
<path d="M75.0542 44.0613C76.0526 43.2607 76.0526 41.7413 75.0542 40.9407L66.7512 34.2827C65.442 33.2329 63.5 34.1649 63.5 35.843L63.5 49.1589C63.5 50.837 65.442 51.769 66.7512 50.7193L75.0542 44.0613Z" fill="#171C35"/>
</svg>
