<svg width="15" height="17" viewBox="0 0 15 17" fill="none" xmlns="http://www.w3.org/2000/svg">
<path d="M1.09375 4.27055C1.09375 3.11796 2.02811 2.18359 3.18071 2.18359H11.5285C12.6812 2.18359 13.6155 3.11796 13.6155 4.27055V13.6088C13.6155 14.7614 12.6812 15.6957 11.5285 15.6957H3.18071C2.02811 15.6957 1.09375 14.7614 1.09375 13.6088V4.27055Z" stroke="#404040" stroke-width="0.8"/>
<path d="M1.09375 6.19928H13.6155" stroke="#404040" stroke-width="0.8" stroke-linecap="round"/>
<path d="M4.57812 1.08789V3.27905" stroke="#404040" stroke-width="0.8" stroke-linecap="round" stroke-linejoin="round"/>
<path d="M10.1328 1.08789V3.27905" stroke="#404040" stroke-width="0.8" stroke-linecap="round" stroke-linejoin="round"/>
<path d="M7.35971 11.3143C7.74391 11.3143 8.05537 10.9873 8.05537 10.5839C8.05537 10.1805 7.74391 9.85352 7.35971 9.85352C6.97552 9.85352 6.66406 10.1805 6.66406 10.5839C6.66406 10.9873 6.97552 11.3143 7.35971 11.3143Z" fill="#404040"/>
<path d="M10.141 11.3143C10.5252 11.3143 10.8366 10.9873 10.8366 10.5839C10.8366 10.1805 10.5252 9.85352 10.141 9.85352C9.75677 9.85352 9.44531 10.1805 9.44531 10.5839C9.44531 10.9873 9.75677 11.3143 10.141 11.3143Z" fill="#404040"/>
<path d="M4.57065 11.3143C4.95485 11.3143 5.2663 10.9873 5.2663 10.5839C5.2663 10.1805 4.95485 9.85352 4.57065 9.85352C4.18645 9.85352 3.875 10.1805 3.875 10.5839C3.875 10.9873 4.18645 11.3143 4.57065 11.3143Z" fill="#404040"/>
</svg>
