<svg width="155" height="75" viewBox="0 0 155 75" fill="none" xmlns="http://www.w3.org/2000/svg">
<path d="M116.172 52.4443C126.754 52.4443 135.332 43.7857 135.332 33.1035C135.332 22.4214 126.754 13.7627 116.172 13.7627V52.4443Z" fill="#FDBE14"/>
<path d="M22.4311 4.53906H19.2465C16.1893 4.53906 13.7109 7.0427 13.7109 10.1311V44.6588C13.7109 47.7471 16.1893 50.2508 19.2465 50.2508H22.4311C25.4883 50.2508 27.9667 47.7471 27.9667 44.6588V10.1311C27.9667 7.0427 25.4883 4.53906 22.4311 4.53906Z" fill="#3BB5D7"/>
<path d="M74.2557 60.802C87.8719 60.802 98.9098 49.66 98.9098 35.9156C98.9098 22.1713 87.8719 11.0293 74.2557 11.0293C60.6396 11.0293 49.6016 22.1713 49.6016 35.9156C49.6016 49.66 60.6396 60.802 74.2557 60.802Z" fill="#C562BC"/>
<path d="M30.6892 9.28319C33.3222 9.325 35.7895 9.87561 38.0887 10.928C40.3879 11.9828 42.404 13.3976 44.1394 15.1702C45.8749 16.9428 47.2328 19.0012 48.2155 21.343C49.1982 23.6848 49.6885 26.187 49.6885 28.8447C49.6885 31.5025 49.196 34.0046 48.2155 36.3465C47.2328 38.6883 45.8725 40.7465 44.1394 42.5192C42.404 44.2918 40.3856 45.6951 38.0887 46.7289C35.7895 47.7627 33.3222 48.3017 30.6892 48.3435V55.75H20.0906V9.28319H30.6892ZM30.6892 37.6428C31.8585 37.6009 32.9562 37.3361 33.9828 36.8482C35.0069 36.3627 35.8953 35.7262 36.6479 34.9431C37.4005 34.1602 37.9967 33.238 38.4362 32.1786C38.8759 31.1192 39.0945 29.997 39.0945 28.8122C39.0945 27.6273 38.8759 26.5052 38.4362 25.4459C37.9967 24.3865 37.4005 23.4665 36.6479 22.6812C35.8953 21.8983 35.0069 21.2617 33.9828 20.7761C32.9585 20.2906 31.8607 20.0234 30.6892 19.9816V37.6428ZM30.6892 6.95996H20.0906C18.8202 6.95996 17.7891 8.00077 17.7891 9.28319V55.7476C17.7891 57.03 18.8202 58.0708 20.0906 58.0708H30.6892C31.9596 58.0708 32.9908 57.03 32.9908 55.7476V50.5135C35.1012 50.2625 37.1244 49.705 39.0255 48.85C41.5755 47.7023 43.8472 46.1225 45.7781 44.1524C47.7115 42.1777 49.2443 39.8569 50.3376 37.2525C51.4353 34.6319 51.9947 31.8022 51.9947 28.8447C51.9947 25.8872 51.4376 23.0575 50.3398 20.437C49.2466 17.8326 47.7137 15.5118 45.7805 13.537C43.8563 11.5716 41.5893 9.98247 39.0439 8.81389C36.4639 7.63137 33.6652 7.00643 30.7284 6.95996H30.6916H30.6892ZM32.9908 34.7527V22.874L33.0023 22.8787C33.7802 23.2481 34.4316 23.715 34.9954 24.3005C35.5501 24.879 35.9804 25.5481 36.3119 26.345C36.6341 27.1232 36.7929 27.9317 36.7929 28.8145C36.7929 29.6974 36.6364 30.5058 36.3119 31.2841C35.9828 32.081 35.5524 32.7501 34.9954 33.3286C34.4385 33.9071 33.7687 34.3856 33.0023 34.7503L32.9908 34.755V34.7527Z" fill="white"/>
<path d="M75.816 9.22166C78.9897 9.22166 81.9726 9.83498 84.7713 11.057C87.57 12.2813 90.0119 13.9378 92.0994 16.0263C94.1869 18.1149 95.8347 20.5753 97.0477 23.4003C98.2584 26.2276 98.8635 29.2455 98.8635 32.4539C98.8635 35.6622 98.2584 38.6801 97.0477 41.5074C95.8371 44.3349 94.1869 46.7929 92.0994 48.8814C90.0119 50.97 87.57 52.6265 84.7713 53.8507C81.9726 55.0751 78.9897 55.6862 75.816 55.6862C72.6422 55.6862 69.6571 55.0751 66.8607 53.8507C64.062 52.6265 61.6316 50.97 59.5647 48.8814C57.498 46.7929 55.8593 44.3349 54.6487 41.5074C53.438 38.6801 52.8327 35.6622 52.8327 32.4539C52.8327 29.2455 53.438 26.23 54.6487 23.4003C55.8593 20.5729 57.498 18.1149 59.5647 16.0263C61.6316 13.9378 64.0642 12.2813 66.8607 11.057C69.6571 9.83266 72.6445 9.22166 75.816 9.22166ZM75.816 6.89844C72.3406 6.89844 69.0195 7.58146 65.9447 8.92661C62.8906 10.2625 60.1954 12.1001 57.9353 14.3862C55.6729 16.6722 53.8569 19.3951 52.5358 22.4802C51.2056 25.5865 50.5312 28.9435 50.5312 32.4539C50.5312 35.9643 51.2056 39.3236 52.5358 42.4274C53.8569 45.5127 55.6729 48.2355 57.9353 50.5216C60.1999 52.8099 62.8928 54.6476 65.9447 55.9811C69.0173 57.3263 72.3384 58.0094 75.816 58.0094C79.2936 58.0094 82.6124 57.3263 85.6873 55.9811C88.7346 54.6476 91.4389 52.8147 93.7197 50.5309C96.0074 48.2402 97.8371 45.5151 99.1582 42.4274C100.489 39.3214 101.163 35.9643 101.163 32.4539C101.163 28.9435 100.489 25.5865 99.1582 22.4802C97.8349 19.3927 96.0051 16.6652 93.7197 14.3769C91.4389 12.0955 88.7368 10.2601 85.6873 8.92661C82.6101 7.58146 79.2913 6.89844 75.816 6.89844Z" fill="white"/>
<path d="M112.658 9.28319C115.291 9.325 117.758 9.87561 120.057 10.928C122.357 11.9828 124.373 13.3976 126.108 15.1702C127.843 16.9428 129.201 19.0012 130.184 21.343C131.167 23.6848 131.657 26.187 131.657 28.8447C131.657 31.5025 131.165 34.0046 130.184 36.3465C129.201 38.6883 127.841 40.7465 126.108 42.5192C124.373 44.2918 122.354 45.6951 120.057 46.7289C117.758 47.7627 115.291 48.3017 112.658 48.3435V55.75H102.059V9.28319H112.658ZM112.658 37.6428C113.827 37.6009 114.925 37.3361 115.951 36.8482C116.976 36.3627 117.864 35.7262 118.617 34.9431C119.369 34.1602 119.965 33.238 120.405 32.1786C120.844 31.1192 121.063 29.997 121.063 28.8122C121.063 27.6273 120.844 26.5052 120.405 25.4459C119.965 24.3865 119.369 23.4665 118.617 22.6812C117.864 21.8983 116.976 21.2617 115.951 20.7761C114.927 20.2906 113.829 20.0234 112.658 19.9816V37.6428ZM112.658 6.95996H102.059C100.789 6.95996 99.7578 8.00077 99.7578 9.28319V55.7476C99.7578 57.03 100.789 58.0708 102.059 58.0708H112.658C113.928 58.0708 114.96 57.03 114.96 55.7476V50.5135C117.07 50.2625 119.093 49.705 120.994 48.85C123.544 47.7023 125.816 46.1225 127.747 44.1524C129.68 42.1777 131.213 39.8569 132.306 37.2525C133.406 34.6296 133.963 31.8022 133.963 28.8447C133.963 25.8872 133.406 23.0599 132.309 20.437C131.215 17.8326 129.682 15.5118 127.749 13.537C125.825 11.5716 123.558 9.98247 121.012 8.81389C118.432 7.63137 115.634 7.00643 112.697 6.95996H112.66H112.658ZM114.96 34.7527V22.874L114.971 22.8787C115.749 23.2481 116.4 23.715 116.964 24.3005C117.519 24.879 117.949 25.5481 118.281 26.345C118.603 27.1232 118.762 27.9317 118.762 28.8145C118.762 29.6974 118.605 30.5058 118.281 31.2841C117.952 32.081 117.521 32.7501 116.964 33.3286C116.407 33.9071 115.737 34.3856 114.971 34.7503L114.96 34.755V34.7527Z" fill="white"/>
<path d="M3.00581 9.41062C3.00581 10.2493 2.33377 10.9277 1.50291 10.9277C0.672051 10.9277 0 10.2493 0 9.41062C0 8.57194 0.672051 7.89355 1.50291 7.89355C2.33377 7.89355 3.00581 8.57194 3.00581 9.41062Z" fill="white"/>
<path d="M8.59957 9.41062C8.59957 10.2493 7.92751 10.9277 7.09665 10.9277C6.26579 10.9277 5.59375 10.2493 5.59375 9.41062C5.59375 8.57194 6.26579 7.89355 7.09665 7.89355C7.92751 7.89355 8.59957 8.57194 8.59957 9.41062Z" fill="white"/>
<path d="M14.2012 9.41159C14.2012 10.2503 13.5291 10.9287 12.6982 10.9287C11.8674 10.9287 11.1953 10.2503 11.1953 9.41159C11.1953 8.57291 11.8674 7.89453 12.6982 7.89453C13.5291 7.89453 14.2012 8.57291 14.2012 9.41159Z" fill="white"/>
<path d="M19.7949 9.41159C19.7949 10.2503 19.1229 10.9287 18.292 10.9287C17.4611 10.9287 16.7891 10.2503 16.7891 9.41159C16.7891 8.57291 17.4611 7.89453 18.292 7.89453C19.1229 7.89453 19.7949 8.57291 19.7949 9.41159Z" fill="white"/>
<path d="M25.3885 9.41062C25.3885 10.2493 24.7165 10.9277 23.8856 10.9277C23.0548 10.9277 22.3828 10.2493 22.3828 9.41062C22.3828 8.57194 23.0548 7.89355 23.8856 7.89355C24.7165 7.89355 25.3885 8.57194 25.3885 9.41062Z" fill="white"/>
<path d="M30.9824 9.41062C30.9824 10.2493 30.3103 10.9277 29.4795 10.9277C28.6486 10.9277 27.9766 10.2493 27.9766 9.41062C27.9766 8.57194 28.6486 7.89355 29.4795 7.89355C30.3103 7.89355 30.9824 8.57194 30.9824 9.41062Z" fill="white"/>
<path d="M36.5838 9.41062C36.5838 10.2493 35.9118 10.9277 35.0811 10.9277C34.2502 10.9277 33.5781 10.2493 33.5781 9.41062C33.5781 8.57194 34.2502 7.89355 35.0811 7.89355C35.9118 7.89355 36.5838 8.57194 36.5838 9.41062Z" fill="white"/>
<path d="M1.50291 17.0368C2.33294 17.0368 3.00582 16.3576 3.00582 15.5198C3.00582 14.682 2.33294 14.0027 1.50291 14.0027C0.672875 14.0027 0 14.682 0 15.5198C0 16.3576 0.672875 17.0368 1.50291 17.0368Z" fill="white"/>
<path d="M8.59957 15.52C8.59957 16.3587 7.92751 17.037 7.09665 17.037C6.26579 17.037 5.59375 16.3587 5.59375 15.52C5.59375 14.6814 6.26579 14.0029 7.09665 14.0029C7.92751 14.0029 8.59957 14.6814 8.59957 15.52Z" fill="white"/>
<path d="M12.6982 17.037C13.5283 17.037 14.2012 16.3579 14.2012 15.52C14.2012 14.6822 13.5283 14.0029 12.6982 14.0029C11.8682 14.0029 11.1953 14.6822 11.1953 15.52C11.1953 16.3579 11.8682 17.037 12.6982 17.037Z" fill="white"/>
<path d="M19.7949 15.52C19.7949 16.3587 19.1229 17.037 18.292 17.037C17.4611 17.037 16.7891 16.3587 16.7891 15.52C16.7891 14.6814 17.4611 14.0029 18.292 14.0029C19.1229 14.0029 19.7949 14.6814 19.7949 15.52Z" fill="white"/>
<path d="M23.8856 17.037C24.7157 17.037 25.3885 16.3579 25.3885 15.52C25.3885 14.6822 24.7157 14.0029 23.8856 14.0029C23.0557 14.0029 22.3828 14.6822 22.3828 15.52C22.3828 16.3579 23.0557 17.037 23.8856 17.037Z" fill="white"/>
<path d="M29.4795 17.037C30.3096 17.037 30.9824 16.3579 30.9824 15.52C30.9824 14.6822 30.3096 14.0029 29.4795 14.0029C28.6494 14.0029 27.9766 14.6822 27.9766 15.52C27.9766 16.3579 28.6494 17.037 29.4795 17.037Z" fill="white"/>
<path d="M35.0732 17.037C35.9033 17.037 36.5762 16.3579 36.5762 15.52C36.5762 14.6822 35.9033 14.0029 35.0732 14.0029C34.2432 14.0029 33.5703 14.6822 33.5703 15.52C33.5703 16.3579 34.2432 17.037 35.0732 17.037Z" fill="white"/>
<path d="M108.483 62.0078V61.7755H108.381V61.9497H108.554C108.554 61.8521 108.476 61.7755 108.381 61.7755V61.9497H108.554V56.4808H108.381V56.6551C108.478 56.6551 108.554 56.5761 108.554 56.4808H108.381V56.6551H108.483V56.4808H108.31C108.31 56.5784 108.388 56.6551 108.483 56.6551V56.4808H108.31V61.9497H108.483V61.7755C108.386 61.7755 108.31 61.8545 108.31 61.9497H108.483V61.7755V62.2402C108.641 62.2402 108.77 62.11 108.77 61.9497V56.4808C108.77 56.3206 108.641 56.1904 108.483 56.1904H108.381C108.223 56.1904 108.094 56.3206 108.094 56.4808V61.9497C108.094 62.11 108.223 62.2402 108.381 62.2402H108.483V62.0078Z" fill="white"/>
<path d="M111.193 59.1644H110.963V59.2666H111.135V59.0924C111.039 59.0924 110.963 59.1714 110.963 59.2666H111.135V59.0924H105.717V59.2666H105.89C105.89 59.169 105.812 59.0924 105.717 59.0924V59.2666H105.89V59.1644H105.717V59.3386C105.814 59.3386 105.89 59.2596 105.89 59.1644H105.717V59.3386H111.135V59.1644H110.963C110.963 59.262 111.041 59.3386 111.135 59.3386V59.1644H110.963H111.423C111.423 59.004 111.294 58.874 111.135 58.874H105.717C105.559 58.874 105.43 59.004 105.43 59.1644V59.2666C105.43 59.4269 105.559 59.5569 105.717 59.5569H111.135C111.294 59.5569 111.423 59.4269 111.423 59.2666V59.1644H111.193Z" fill="white"/>
<path d="M108.592 43.2782V43.046H108.491V43.2202H108.663C108.663 43.1226 108.585 43.046 108.491 43.046V43.2202H108.663V37.7513H108.491V37.9255C108.588 37.9255 108.663 37.8465 108.663 37.7513H108.491V37.9255H108.592V37.7513H108.42C108.42 37.8489 108.498 37.9255 108.592 37.9255V37.7513H108.42V43.2202H108.592V43.046C108.495 43.046 108.42 43.125 108.42 43.2202H108.592V43.046V43.5105C108.751 43.5105 108.88 43.3805 108.88 43.2202V37.7513C108.88 37.591 108.751 37.4609 108.592 37.4609H108.491C108.332 37.4609 108.203 37.591 108.203 37.7513V43.2202C108.203 43.3805 108.332 43.5105 108.491 43.5105H108.592V43.2782Z" fill="white"/>
<path d="M111.31 40.4329H111.08V40.5351H111.252V40.3609C111.156 40.3609 111.08 40.4399 111.08 40.5351H111.252V40.3609H105.835V40.5351H106.007C106.007 40.4376 105.929 40.3609 105.835 40.3609V40.5351H106.007V40.4329H105.835V40.6071C105.931 40.6071 106.007 40.5282 106.007 40.4329H105.835V40.6071H111.252V40.4329H111.08C111.08 40.5305 111.158 40.6071 111.252 40.6071V40.4329H111.08H111.54C111.54 40.2726 111.411 40.1426 111.252 40.1426H105.835C105.676 40.1426 105.547 40.2726 105.547 40.4329V40.5351C105.547 40.6955 105.676 40.8255 105.835 40.8255H111.252C111.411 40.8255 111.54 40.6955 111.54 40.5351V40.4329H111.31Z" fill="white"/>
<path d="M108.702 24.5469V24.3145H108.6V24.4887H108.773C108.773 24.3911 108.695 24.3145 108.6 24.3145V24.4887H108.773V19.0199H108.6V19.1942C108.697 19.1942 108.773 19.1152 108.773 19.0199H108.6V19.1942H108.702V19.0199H108.529C108.529 19.1174 108.607 19.1942 108.702 19.1942V19.0199H108.529V24.4887H108.702V24.3145C108.605 24.3145 108.529 24.3935 108.529 24.4887H108.702V24.3145V24.7792C108.86 24.7792 108.989 24.6491 108.989 24.4887V19.0199C108.989 18.8596 108.86 18.7295 108.702 18.7295H108.6C108.441 18.7295 108.312 18.8596 108.312 19.0199V24.4887C108.312 24.6491 108.441 24.7792 108.6 24.7792H108.702V24.5469Z" fill="white"/>
<path d="M111.411 21.7044H111.181V21.8066H111.354V21.6324C111.257 21.6324 111.181 21.7114 111.181 21.8066H111.354V21.6324H105.936V21.8066H106.109C106.109 21.709 106.031 21.6324 105.936 21.6324V21.8066H106.109V21.7044H105.936V21.8788C106.033 21.8788 106.109 21.7998 106.109 21.7044H105.936V21.8788H111.354V21.7044H111.181C111.181 21.802 111.26 21.8788 111.354 21.8788V21.7044H111.181H111.642C111.642 21.5442 111.513 21.4141 111.354 21.4141H105.936C105.777 21.4141 105.648 21.5442 105.648 21.7044V21.8066C105.648 21.967 105.777 22.0971 105.936 22.0971H111.354C111.513 22.0971 111.642 21.967 111.642 21.8066V21.7044H111.411Z" fill="white"/>
<path d="M108.811 5.81502V5.5827H108.71V5.75695H108.882C108.882 5.65937 108.804 5.5827 108.71 5.5827V5.75695H108.882V0.290403H108.71V0.464644C108.806 0.464644 108.882 0.385655 108.882 0.290403H108.71V0.464644H108.811V0.290403H108.638C108.638 0.387978 108.716 0.464644 108.811 0.464644V0.290403H108.638V5.75927H108.811V5.58503C108.714 5.58503 108.638 5.66402 108.638 5.75927H108.811V5.58503V6.04968C108.97 6.04968 109.098 5.91958 109.098 5.75927V0.290403C109.098 0.1301 108.97 0 108.811 0H108.71C108.551 0 108.422 0.1301 108.422 0.290403V5.75927C108.422 5.91958 108.551 6.04968 108.71 6.04968H108.811V5.81735V5.81502Z" fill="white"/>
<path d="M111.521 2.97303H111.291V3.07525H111.463V2.901C111.367 2.901 111.291 2.97999 111.291 3.07525H111.463V2.901H106.045V3.07525H106.218C106.218 2.97767 106.14 2.901 106.045 2.901V3.07525H106.218V2.97303H106.045V3.14726C106.142 3.14726 106.218 3.06827 106.218 2.97303H106.045V3.14726H111.463V2.97303H111.291C111.291 3.07059 111.369 3.14726 111.463 3.14726V2.97303H111.291H111.751C111.751 2.81272 111.622 2.68262 111.463 2.68262H106.045C105.887 2.68262 105.758 2.81272 105.758 2.97303V3.07525C105.758 3.23554 105.887 3.36564 106.045 3.36564H111.463C111.622 3.36564 111.751 3.23554 111.751 3.07525V2.97303H111.521Z" fill="white"/>
<path fill-rule="evenodd" clip-rule="evenodd" d="M75.9389 11.9541C77.6075 11.9541 79.2278 12.1585 80.779 12.5419C77.9412 14.8117 75.368 17.2395 73.1125 19.7299C71.1885 21.6815 69.3519 23.7166 67.6119 25.8074L67.5957 25.4729C67.5842 21.4352 67.8375 17.3881 68.4013 13.4131C70.7328 12.4722 73.2783 11.9541 75.9411 11.9541H75.9389ZM83.9574 13.6129C80.779 16.0197 77.7686 18.696 74.9515 21.556L74.7191 21.8139C77.4211 21.5769 80.1461 21.4491 82.878 21.4422C86.2153 21.2934 89.7321 21.412 93.3224 21.8325C91.1359 18.1989 87.8609 15.3066 83.9552 13.6129H83.9574ZM94.8231 24.862C95.7551 27.2154 96.2684 29.7825 96.2684 32.4729C96.2684 34.1572 96.0658 35.7927 95.6861 37.3585C93.4399 34.494 91.0348 31.8966 88.5674 29.6199C86.6342 27.6777 84.618 25.826 82.5467 24.0673L82.878 24.0511C86.8782 24.0395 90.8874 24.2951 94.8253 24.8642L94.8231 24.862ZM94.6228 40.5669C92.2383 37.3585 89.587 34.3198 86.7538 31.4761L86.4983 31.2415C86.7331 33.969 86.8596 36.722 86.8666 39.4797C87.0139 42.8483 86.8966 46.3982 86.4799 50.0224C90.0796 47.8153 92.945 44.5094 94.6228 40.5669ZM83.4787 51.5349C81.1473 52.4757 78.604 52.9938 75.9389 52.9938C74.2703 52.9938 72.65 52.7894 71.0987 52.4061C73.9365 50.1385 76.5096 47.7085 78.7651 45.2203C80.6893 43.2665 82.5259 41.2336 84.2659 39.1404L84.282 39.4749C84.2934 43.5128 84.038 47.5598 83.4764 51.5349H83.4787ZM67.9202 51.3327C71.0987 48.9259 74.1091 46.2495 76.9262 43.3896L77.1587 43.1317C74.4567 43.3687 71.7317 43.4964 68.9997 43.5034C65.6625 43.6522 62.1457 43.5336 58.5553 43.1131C60.7418 46.7467 64.0169 49.639 67.9226 51.3327H67.9202ZM57.0547 40.0836C56.1225 37.7302 55.6094 35.1608 55.6094 32.4729C55.6094 30.7884 55.8118 29.1529 56.1916 27.5871C58.438 30.4516 60.8454 33.049 63.3126 35.3258C65.246 37.2679 67.2621 39.1218 69.3357 40.8783L69.0043 40.8945C65.002 40.9061 60.9972 40.6505 57.0569 40.0814L57.0547 40.0836ZM57.2526 24.3787C59.6371 27.5871 62.2884 30.6258 65.1216 33.4695L65.3772 33.7017C65.1423 30.9766 65.0157 28.2236 65.0089 25.4659C64.8615 22.0973 64.9789 18.5474 65.3956 14.9232C61.7959 17.1303 58.9305 20.4361 57.2526 24.3787Z" fill="white"/>
<path fill-rule="evenodd" clip-rule="evenodd" d="M140.958 42.7694L139.336 42.3304C138.957 42.2281 138.749 41.7658 138.871 41.2989L145.598 9.32902C145.925 8.09771 147.003 7.31943 148.006 7.59125L150.645 8.30448C151.648 8.57629 152.196 9.79366 151.87 11.025L141.872 42.1097C141.748 42.5766 141.34 42.8717 140.96 42.7694H140.958Z" fill="#A4CF76"/>
<path d="M140.226 49.394L139.324 49.2081C139.217 49.7216 138.946 50.1467 138.574 50.4534C138.198 50.7578 137.729 50.9344 137.234 50.9344C137.091 50.9344 136.949 50.9204 136.801 50.8902C136.293 50.7832 135.871 50.5091 135.568 50.1327C135.266 49.7542 135.091 49.2801 135.091 48.7807C135.091 48.6366 135.105 48.4926 135.135 48.3438C135.241 47.8305 135.512 47.4054 135.885 47.0986C136.26 46.7943 136.73 46.6177 137.225 46.6177C137.367 46.6177 137.51 46.6317 137.657 46.6619C138.166 46.7687 138.588 47.0429 138.891 47.4192C139.192 47.7979 139.368 48.2718 139.368 48.7714C139.368 48.9154 139.354 49.0595 139.324 49.2081L140.226 49.394L141.128 49.5798C141.184 49.3081 141.209 49.0385 141.209 48.7691C141.209 47.8327 140.885 46.9477 140.324 46.2507C139.768 45.5513 138.967 45.0334 138.028 44.8404C137.759 44.7848 137.492 44.7568 137.225 44.7568C136.297 44.7568 135.42 45.0844 134.73 45.6489C134.037 46.2112 133.524 47.0196 133.333 47.9675C133.278 48.2394 133.25 48.5088 133.25 48.7783C133.25 49.7146 133.575 50.5998 134.134 51.2967C134.691 51.996 135.492 52.5141 136.431 52.7069C136.7 52.7627 136.967 52.7883 137.234 52.7883C138.162 52.7883 139.039 52.4607 139.729 51.896C140.421 51.3339 140.935 50.5254 141.126 49.5776L140.223 49.3917L140.226 49.394Z" fill="white"/>
<path d="M139.609 42.7957L139.793 41.885L137.558 41.4227L137.53 41.4063L137.519 41.3761V41.3669L137.53 41.3088L142.534 5.11995L141.622 4.99217L142.525 5.17804C142.605 4.78541 142.812 4.46016 143.097 4.22784C143.383 3.99552 143.744 3.86076 144.122 3.86076C144.229 3.86076 144.34 3.87238 144.454 3.89562L148.092 4.64835C148.481 4.72965 148.803 4.93874 149.033 5.22683C149.263 5.5149 149.397 5.87966 149.397 6.26066C149.397 6.36985 149.386 6.48136 149.362 6.5952L150.265 6.78107L149.376 6.53713L139.863 41.7921L139.849 41.8501L139.834 41.878L139.804 41.8896H139.793L139.609 42.8003L139.425 43.711C139.55 43.7365 139.678 43.7505 139.804 43.7505C140.247 43.7505 140.66 43.5948 140.99 43.3276C141.319 43.0605 141.563 42.6749 141.653 42.2264L140.75 42.0406L141.639 42.2846L151.15 7.02965L151.164 6.97156C151.213 6.7346 151.236 6.49763 151.236 6.2653C151.236 5.44753 150.953 4.67622 150.465 4.06521C149.98 3.45421 149.279 3.00118 148.46 2.83158L144.823 2.07886C144.589 2.03007 144.354 2.00684 144.124 2.00684C143.313 2.00684 142.549 2.29259 141.945 2.78512C141.339 3.27532 140.89 3.98158 140.723 4.80864L140.713 4.86673L135.71 41.0556L136.621 41.1834L135.719 40.9952C135.694 41.123 135.68 41.253 135.68 41.3808C135.68 41.8269 135.834 42.245 136.099 42.5773C136.363 42.9095 136.745 43.1558 137.19 43.2464L139.425 43.7087L139.609 42.7979V42.7957Z" fill="white"/>
<path d="M153.635 15.2344L151.047 16.6097L152.41 19.2226L154.998 17.8473L153.635 15.2344Z" fill="white"/>
<path d="M152.189 19.9238L149.602 21.2992L150.963 23.9121L153.553 22.5368L152.189 19.9238Z" fill="white"/>
<path d="M150.753 24.6162L148.164 25.9914L149.527 28.6045L152.115 27.2291L150.753 24.6162Z" fill="white"/>
<path d="M149.307 29.3076L146.719 30.683L148.081 33.2959L150.67 31.9205L149.307 29.3076Z" fill="white"/>
<path d="M147.871 34.002L145.281 35.3773L146.644 37.9903L149.232 36.615L147.871 34.002Z" fill="white"/>
<path d="M20.2613 70.8781H20.8074C21.3178 70.8781 21.6997 70.7811 21.9531 70.5873C22.2065 70.3901 22.3333 70.1046 22.3333 69.7309C22.3333 69.3536 22.2262 69.0751 22.0121 68.8952C21.8014 68.7151 21.4694 68.6252 21.0162 68.6252H20.2613V70.8781ZM24.0091 69.6737C24.0091 70.4905 23.7449 71.1151 23.2166 71.5478C22.692 71.9803 21.9443 72.1966 20.9733 72.1966H20.2613V74.8959H18.6016V67.3066H21.1019C22.0512 67.3066 22.7723 67.5057 23.2648 67.9036C23.7609 68.2981 24.0091 68.8882 24.0091 69.6737Z" fill="white"/>
<path d="M35.8515 74.8959H34.1972V71.6203H31.0972V74.8959H29.4375V67.3066H31.0972V70.2812H34.1972V67.3066H35.8515V74.8959Z" fill="white"/>
<path d="M48.8823 71.0912C48.8823 72.3474 48.5611 73.3129 47.9186 73.9877C47.2762 74.6625 46.3553 75 45.156 75C43.9567 75 43.0359 74.6625 42.3934 73.9877C41.7509 73.3129 41.4297 72.3439 41.4297 71.0808C41.4297 69.8176 41.7509 68.8538 42.3934 68.1895C43.0395 67.5215 43.9639 67.1875 45.1667 67.1875C46.3696 67.1875 47.2886 67.5233 47.924 68.1946C48.5629 68.866 48.8823 69.8316 48.8823 71.0912ZM43.1697 71.0912C43.1697 71.9391 43.3356 72.5775 43.6676 73.0066C43.9996 73.4358 44.4957 73.6504 45.156 73.6504C46.4801 73.6504 47.1423 72.7973 47.1423 71.0912C47.1423 69.3815 46.4837 68.5268 45.1667 68.5268C44.5064 68.5268 44.0085 68.7431 43.673 69.1757C43.3374 69.6048 43.1697 70.2433 43.1697 71.0912Z" fill="white"/>
<path d="M57.4728 74.8959H55.8131V68.6459H53.6875V67.3066H59.5982V68.6459H57.4728V74.8959Z" fill="white"/>
<path d="M71.8511 71.0912C71.8511 72.3474 71.5299 73.3129 70.8875 73.9877C70.2449 74.6625 69.3241 75 68.1248 75C66.9255 75 66.0046 74.6625 65.3622 73.9877C64.7196 73.3129 64.3984 72.3439 64.3984 71.0808C64.3984 69.8176 64.7196 68.8538 65.3622 68.1895C66.0082 67.5215 66.9327 67.1875 68.1356 67.1875C69.3383 67.1875 70.2575 67.5233 70.8927 68.1946C71.5317 68.866 71.8511 69.8316 71.8511 71.0912ZM66.1384 71.0912C66.1384 71.9391 66.3045 72.5775 66.6364 73.0066C66.9684 73.4358 67.4645 73.6504 68.1248 73.6504C69.449 73.6504 70.1111 72.7973 70.1111 71.0912C70.1111 69.3815 69.4526 68.5268 68.1356 68.5268C67.4752 68.5268 66.9772 68.7431 66.6418 69.1757C66.3063 69.6048 66.1384 70.2433 66.1384 71.0912Z" fill="white"/>
<path d="M80.3898 70.6326H83.495V74.5674C82.9918 74.7267 82.517 74.8374 82.0708 74.8996C81.6282 74.9654 81.175 74.9983 80.711 74.9983C79.5295 74.9983 78.6265 74.6626 78.0018 73.9912C77.3809 73.3164 77.0703 72.3491 77.0703 71.0895C77.0703 69.8644 77.4308 68.9093 78.1518 68.2241C78.8763 67.5388 79.8794 67.1963 81.1607 67.1963C81.9638 67.1963 82.7383 67.352 83.4843 67.6634L82.9328 68.9508C82.3617 68.674 81.7674 68.5354 81.1499 68.5354C80.4325 68.5354 79.8579 68.7691 79.426 69.2363C78.9941 69.7035 78.7782 70.3316 78.7782 71.1206C78.7782 71.9442 78.9513 72.574 79.2976 73.0102C79.6473 73.4427 80.1542 73.659 80.8181 73.659C81.1643 73.659 81.5159 73.6243 81.8728 73.5551V71.9719H80.3898V70.6326Z" fill="white"/>
<path d="M90.9722 70.6756H91.5077C92.0323 70.6756 92.4195 70.5908 92.6695 70.4213C92.9192 70.2517 93.0442 69.9852 93.0442 69.6219C93.0442 69.2619 92.9157 69.0059 92.6587 68.8535C92.4053 68.7013 92.0108 68.6252 91.4754 68.6252H90.9722V70.6756ZM90.9722 71.9838V74.8959H89.3125V67.3066H91.5933C92.6569 67.3066 93.4439 67.4952 93.9544 67.8726C94.4648 68.2462 94.72 68.8155 94.72 69.5804C94.72 70.0267 94.5932 70.4248 94.3398 70.7743C94.0864 71.1203 93.7277 71.392 93.2637 71.5893C94.4416 73.2953 95.2089 74.3976 95.5658 74.8959H93.7241L91.8556 71.9838H90.9722Z" fill="white"/>
<path d="M105.285 74.8947L104.717 73.0882H101.864L101.296 74.8947H99.5078L102.271 67.2744H104.3L107.073 74.8947H105.285ZM104.321 71.7385C103.796 70.1017 103.5 69.176 103.432 68.9614C103.368 68.7468 103.322 68.5774 103.293 68.4527C103.175 68.8957 102.838 69.991 102.281 71.7385H104.321Z" fill="white"/>
<path d="M113.675 70.8781H114.221C114.732 70.8781 115.114 70.7811 115.367 70.5873C115.621 70.3901 115.747 70.1046 115.747 69.7309C115.747 69.3536 115.64 69.0751 115.426 68.8952C115.215 68.7151 114.884 68.6252 114.43 68.6252H113.675V70.8781ZM117.423 69.6737C117.423 70.4905 117.159 71.1151 116.631 71.5478C116.106 71.9803 115.358 72.1966 114.387 72.1966H113.675V74.8959H112.016V67.3066H114.516C115.465 67.3066 116.186 67.5057 116.679 67.9036C117.175 68.2981 117.423 68.8882 117.423 69.6737Z" fill="white"/>
<path d="M129.266 74.8959H127.611V71.6203H124.511V74.8959H122.852V67.3066H124.511V70.2812H127.611V67.3066H129.266V74.8959Z" fill="white"/>
<path d="M137.624 70.4316L139.257 67.3066H141.045L138.449 71.9422V74.8959H136.8V71.9942L134.203 67.3066H136.002L137.624 70.4316Z" fill="white"/>
</svg>
