<svg width="47" height="48" viewBox="0 0 47 48" fill="none" xmlns="http://www.w3.org/2000/svg">
<circle cx="23.3141" cy="23.8923" r="23.3141" fill="#FDBE14"/>
<path d="M14 21.0473V27.6579C14 28.3646 14.3119 29.0423 14.8671 29.542C15.4223 30.0416 16.1753 30.3224 16.9605 30.3224H28.8026C29.5878 30.3224 30.3408 30.0416 30.896 29.542C31.4512 29.0423 31.7632 28.3646 31.7632 27.6579V19.6645C31.7632 18.9578 31.4512 18.2801 30.896 17.7804C30.3408 17.2807 29.5878 17 28.8026 17H16.9605C16.1753 17 15.4223 17.2807 14.8671 17.7804C14.3119 18.2801 14 18.9578 14 19.6645V21.0473ZM16.9605 18.3322H28.8026C29.1952 18.3322 29.5717 18.4726 29.8493 18.7224C30.1269 18.9723 30.2829 19.3111 30.2829 19.6645V20.6503L22.8816 24.2367L15.4803 20.6503V19.6645C15.4803 19.3111 15.6362 18.9723 15.9138 18.7224C16.1914 18.4726 16.5679 18.3322 16.9605 18.3322ZM15.4803 22.1637L22.5308 25.5796C22.6386 25.6318 22.7591 25.6592 22.8816 25.6592C23.004 25.6592 23.1246 25.6318 23.2324 25.5796L30.2829 22.1637V27.6579C30.2829 28.0112 30.1269 28.3501 29.8493 28.5999C29.5717 28.8498 29.1952 28.9901 28.8026 28.9901H16.9605C16.5679 28.9901 16.1914 28.8498 15.9138 28.5999C15.6362 28.3501 15.4803 28.0112 15.4803 27.6579V22.1637Z" fill="white"/>
</svg>
