<svg width="47" height="48" viewBox="0 0 47 48" fill="none" xmlns="http://www.w3.org/2000/svg">
<circle cx="23.3141" cy="23.8923" r="23.3141" fill="#FDBE14"/>
<path d="M19.2517 14.7173C18.0391 14.4095 16.7681 14.5401 15.7724 15.0974C14.7579 15.6641 14.0467 16.6692 14.0117 18.0136C13.9581 20.1147 14.4443 22.9341 16.3752 26.2432C18.2816 29.5114 20.3862 31.4703 22.1329 32.634C23.2359 33.3697 24.4544 33.3895 25.4956 32.9103C26.5217 32.4381 27.3542 31.4948 27.7868 30.3253C27.8944 30.0344 27.9377 29.7237 27.9135 29.4145C27.8894 29.1052 27.7984 28.805 27.6469 28.5343L26.5345 26.5498C26.1926 25.939 25.6422 25.4717 24.9841 25.2332C24.326 24.9947 23.6041 25.001 22.9502 25.2509L22.1737 25.5482C21.7971 25.6916 21.4508 25.6252 21.2549 25.4316C20.5961 24.7845 20.125 23.9065 19.9116 22.9597C19.844 22.6612 19.9816 22.3091 20.3104 22.0607L21.0112 21.5314C21.5777 21.1039 21.9688 20.4844 22.1111 19.7891C22.2535 19.0938 22.1372 18.3704 21.7842 17.7547L20.6509 15.7783C20.5007 15.5167 20.2995 15.2879 20.0591 15.1056C19.8187 14.9233 19.5441 14.7913 19.2517 14.7173ZM15.1777 18.045C15.201 17.1426 15.6581 16.4978 16.3414 16.1153C17.0433 15.7224 18.0017 15.6023 18.9649 15.8471C19.106 15.8828 19.2385 15.9465 19.3545 16.0344C19.4705 16.1224 19.5675 16.2328 19.64 16.359L20.7721 18.3354C20.9839 18.7047 21.0537 19.1385 20.9685 19.5556C20.8833 19.9726 20.6489 20.3443 20.3092 20.6009L19.6085 21.1303C19.0022 21.5873 18.5824 22.3709 18.7736 23.2162C19.0325 24.3612 19.605 25.4468 20.4375 26.2641C21.0462 26.8611 21.9137 26.8961 22.5899 26.6373L23.3665 26.3399C23.7588 26.1898 24.1921 26.1858 24.5871 26.3288C24.9822 26.4718 25.3125 26.7523 25.5177 27.1188L26.6289 29.1045C26.7689 29.354 26.7922 29.6525 26.6931 29.9207C26.3549 30.836 25.7195 31.5228 25.0082 31.8504C24.3121 32.1711 23.5251 32.1617 22.78 31.6639C21.1814 30.5981 19.2004 28.771 17.3814 25.6555C15.5613 22.5306 15.1299 19.9258 15.1789 18.045H15.1777ZM26.4902 14.6543C26.355 14.5792 26.1956 14.5608 26.0469 14.6032C25.8982 14.6456 25.7725 14.7454 25.6973 14.8805C25.6222 15.0157 25.6038 15.1751 25.6462 15.3238C25.6886 15.4725 25.7884 15.5983 25.9235 15.6734L26.3713 15.9229C27.77 16.7 28.9598 17.8041 29.839 19.141C30.7182 20.4778 31.2607 22.0077 31.42 23.5998L31.4573 23.9671C31.4617 24.0457 31.482 24.1227 31.5169 24.1932C31.5519 24.2638 31.6007 24.3265 31.6606 24.3777C31.7204 24.4289 31.79 24.4674 31.8652 24.4909C31.9403 24.5144 32.0194 24.5225 32.0978 24.5146C32.1761 24.5067 32.252 24.4831 32.321 24.445C32.3899 24.407 32.4505 24.3554 32.4989 24.2934C32.5474 24.2313 32.5828 24.1601 32.6029 24.084C32.6231 24.0079 32.6277 23.9284 32.6163 23.8505L32.5802 23.4844C32.4023 21.7046 31.796 19.9944 30.8132 18.4999C29.8305 17.0055 28.5004 15.7712 26.9368 14.9027L26.4902 14.6543ZM25.1236 17.7792C25.2033 17.6467 25.3323 17.5513 25.4823 17.5139C25.6323 17.4765 25.791 17.5002 25.9235 17.5798L26.0681 17.6661C27.0093 18.2304 27.8167 18.9923 28.4346 19.8993C29.0524 20.8062 29.4659 21.8365 29.6465 22.9189L29.6978 23.2302C29.7125 23.3066 29.7118 23.3851 29.6956 23.4611C29.6795 23.5372 29.6484 23.6092 29.604 23.6731C29.5596 23.7369 29.5029 23.7912 29.4372 23.8328C29.3716 23.8744 29.2982 23.9024 29.2215 23.9153C29.1449 23.9281 29.0664 23.9255 28.9908 23.9075C28.9151 23.8896 28.8438 23.8567 28.7811 23.8108C28.7183 23.7649 28.6654 23.7069 28.6254 23.6402C28.5854 23.5736 28.5592 23.4996 28.5482 23.4226L28.4957 23.1113C28.3431 22.1956 27.9936 21.3239 27.4711 20.5565C26.9487 19.7891 26.2659 19.1442 25.4699 18.6665L25.3254 18.5791C25.2597 18.5397 25.2024 18.4878 25.1567 18.4263C25.1111 18.3648 25.078 18.295 25.0594 18.2207C25.0408 18.1464 25.0369 18.0692 25.0482 17.9934C25.0594 17.9177 25.0854 17.8449 25.1248 17.7792H25.1236Z" fill="white"/>
</svg>
