<svg width="76" height="96" viewBox="0 0 76 96" fill="none" xmlns="http://www.w3.org/2000/svg">
<g clip-path="url(#clip0_161_6452)">
<path fill-rule="evenodd" clip-rule="evenodd" d="M32.9681 89.8499L33.0881 90.0799C34.3134 92.3714 36.344 94.1277 38.7881 95.0099C39.5159 95.3375 40.305 95.5069 41.1031 95.5069C41.9013 95.5069 42.6903 95.3375 43.4181 95.0099C44.7759 94.2891 45.8532 93.1344 46.4781 91.7299C46.8396 90.9922 47.1406 90.2263 47.3781 89.4399C46.2511 89.7357 45.0998 89.9298 43.9381 90.0199C43.1381 91.9499 41.9381 93.0199 39.8281 92.2399C38.6161 91.8156 37.5203 91.1135 36.6281 90.1899C35.4001 90.152 34.1766 90.0217 32.9681 89.7999V89.8499ZM48.2681 85.4999L48.3181 85.1999L48.1281 85.2599C48.1281 85.2599 48.1881 85.3499 48.2681 85.4999ZM49.3181 70.4999C49.4381 67.3699 49.5981 64.7799 50.0981 63.4999C50.7075 62.114 51.5726 60.8554 52.6481 59.7899C54.3522 58.0013 56.2241 56.3805 58.2381 54.9499C64.9081 50.1199 67.5881 44.5599 66.4881 38.3299C65.6481 33.5499 62.4881 28.2699 56.7581 22.5399C53.3792 19.173 49.1742 16.7538 44.565 15.5252C39.9559 14.2965 35.1047 14.3016 30.4981 15.5399C22.4981 17.6799 14.8781 23.5399 10.3481 33.8599C7.18813 41.1199 7.93813 45.8599 10.3481 49.5299C12.3481 52.6099 15.7181 54.8899 19.0781 57.2199C25.7281 61.8299 28.3681 64.8799 29.6881 70.5799C29.9981 70.4599 30.3481 70.3499 30.6881 70.2399C31.0281 70.1299 31.2781 70.0699 31.5881 69.9999C30.5881 64.6099 28.6581 60.4899 20.7181 54.8199C17.7181 52.6799 14.7181 50.6499 12.8981 47.8199C10.9881 44.8199 10.6681 40.9999 13.2881 35.1399C17.3781 25.9599 24.1281 20.6699 31.2881 18.7599C35.3214 17.6785 39.5677 17.6736 43.6035 18.7457C47.6392 19.8178 51.3233 21.9294 54.2881 24.8699C59.3781 29.9799 62.3481 34.6099 63.1081 38.8699C64.0081 43.8699 61.6181 48.2999 56.2181 52.2299C54.0346 53.7968 52.0024 55.5645 50.1481 57.5099C48.8 58.8953 47.7216 60.5197 46.9681 62.2999C46.3631 64.6381 46.064 67.0448 46.0781 69.4599C47.2093 69.6429 48.3034 70.0076 49.3181 70.5399V70.4999Z" fill="#FDBE14"/>
<path fill-rule="evenodd" clip-rule="evenodd" d="M32.6865 46.4003C32.3965 46.1003 32.1365 45.8003 31.8965 45.5003C31.3972 44.7513 30.6668 44.186 29.8165 43.8904C29.4986 43.8038 29.1623 43.8126 28.8493 43.9157C28.5364 44.0189 28.2607 44.2117 28.0565 44.4703C27.7164 44.8911 27.5202 45.4098 27.4965 45.9504C27.4492 47.0242 27.54 48.0996 27.7665 49.1503C28.5165 53.3203 30.3065 57.7303 33.9265 67.6503C34.0381 67.9472 34.2617 68.1885 34.5493 68.3221C34.8369 68.4558 35.1655 68.4712 35.4643 68.365C35.7632 68.2588 36.0084 68.0396 36.1472 67.7544C36.286 67.4693 36.3073 67.141 36.2065 66.8403C33.8565 59.9903 32.1465 57.4304 31.0765 53.2004C30.5765 51.2004 30.1265 47.9403 29.9365 46.6903C30.3365 47.1103 31.3665 49.2203 31.7865 49.6903C31.3365 52.0903 31.6065 54.3103 33.6765 55.9703C33.9706 56.2317 34.3353 56.4005 34.7248 56.4556C35.1143 56.5108 35.5115 56.4498 35.8666 56.2803C36.1125 56.1428 36.3245 55.9519 36.4872 55.7218C36.6498 55.4917 36.7589 55.2281 36.8065 54.9504C36.9183 53.9436 36.8334 52.9247 36.5565 51.9504C36.3303 51.0461 35.9257 50.1961 35.3666 49.4504L34.9465 48.9103C35.1452 47.9404 35.4194 46.9875 35.7665 46.0603C37.1665 43.0603 37.6565 45.2503 38.5265 47.8803C37.6208 49.6892 37.158 51.6875 37.1765 53.7104C37.3265 55.8904 38.6565 56.3104 39.3765 56.2004C39.8567 56.1273 40.2939 55.8821 40.6065 55.5104C41.1013 54.8654 41.4433 54.1166 41.6065 53.3204C41.9781 51.5873 41.9542 49.7928 41.5365 48.0704C44.8965 42.3904 43.0066 52.7303 42.8366 54.2203C42.0566 60.7903 40.6465 68.3804 40.6465 68.3804C40.6216 68.4959 40.6197 68.6153 40.6408 68.7316C40.662 68.8479 40.7059 68.9589 40.7699 69.0583C40.834 69.1576 40.917 69.2434 41.0142 69.3106C41.1115 69.3779 41.221 69.4254 41.3366 69.4504C41.4521 69.4753 41.5714 69.4772 41.6878 69.4561C41.8041 69.4349 41.9151 69.391 42.0145 69.3269C42.1138 69.2629 42.1996 69.1799 42.2668 69.0827C42.3341 68.9854 42.3816 68.8759 42.4065 68.7604C42.4065 68.7604 45.2766 56.6604 45.8666 49.7004C46.0305 48.2968 46.0069 46.8777 45.7965 45.4804C45.7404 45.14 45.6168 44.8143 45.4331 44.5224C45.2493 44.2305 45.0091 43.9782 44.7266 43.7803C43.4666 43.0203 41.8265 43.4504 40.4065 44.9604C40.2565 44.6704 40.1065 44.3904 39.9365 44.1004C39.6882 43.5713 39.3221 43.1061 38.8662 42.7404C38.4104 42.3746 37.8768 42.1181 37.3065 41.9904C36.8479 41.9313 36.3817 41.9791 35.9446 42.13C35.5075 42.281 35.1111 42.5309 34.7865 42.8604C33.8401 43.8756 33.1238 45.083 32.6865 46.4003Z" fill="#FDBE14"/>
<path fill-rule="evenodd" clip-rule="evenodd" d="M26.5624 74.7498C26.4644 74.8845 26.3742 75.0248 26.2924 75.1698C25.9083 75.9038 25.7615 76.7389 25.8724 77.5598C25.9232 78.4265 26.2772 79.2478 26.8724 79.8798C26.9893 80.0006 27.1164 80.1111 27.2524 80.2099V80.3098C27.043 81.1839 26.9989 82.0895 27.1224 82.9798C27.2114 84.112 27.7006 85.1755 28.5024 85.9798C28.6624 86.1198 28.8024 86.2398 28.9524 86.3498C28.8838 86.7089 28.857 87.0746 28.8724 87.4398C28.9133 88.4488 29.2939 89.4143 29.9524 90.1799C30.4942 90.744 31.1896 91.1368 31.9524 91.3098C33.8923 91.7455 35.8742 91.9668 37.8624 91.9698C40.7524 92.048 43.6436 91.8706 46.5024 91.4398C47.5023 91.3083 48.4559 90.9379 49.2824 90.3598C49.6581 90.0272 49.9599 89.6195 50.1683 89.1631C50.3767 88.7067 50.4871 88.2116 50.4924 87.7099C50.5044 87.1047 50.4096 86.5021 50.2124 85.9299C50.3224 85.8299 50.4324 85.6999 50.5524 85.5799C51.1833 84.8288 51.6409 83.9479 51.8924 82.9998C52.176 82.1182 52.1969 81.1731 51.9524 80.2798C52.323 79.7176 52.5717 79.084 52.6824 78.4198C52.9184 77.4194 52.8345 76.3701 52.4424 75.4198C52.3036 75.0598 52.1114 74.7227 51.8724 74.4198C52.0448 74.067 52.1595 73.6889 52.2124 73.2999C52.3232 72.2844 52.0756 71.2621 51.5124 70.4098C51.0267 69.6807 50.3285 69.1186 49.5124 68.7999C45.1024 66.8599 27.4224 67.1099 25.7424 72.1799C25.631 72.5636 25.6184 72.9692 25.7059 73.3591C25.7933 73.749 25.9778 74.1104 26.2424 74.4098C26.3307 74.5301 26.4276 74.6437 26.5324 74.7498H26.5624ZM48.7024 72.1298C48.8224 72.325 48.9007 72.5429 48.9324 72.7699C48.9321 72.8485 48.9128 72.9259 48.8763 72.9955C48.8397 73.0651 48.7869 73.1249 48.7224 73.1698C48.4475 73.3278 48.2222 73.5594 48.072 73.8386C47.9218 74.1178 47.8527 74.4334 47.8724 74.7498C47.9224 75.3898 47.8724 74.9598 48.4524 75.1998C48.4524 75.1998 49.7924 75.8998 49.9124 76.3798C50.0142 76.8896 49.9135 77.419 49.6316 77.8559C49.3497 78.2927 48.9089 78.6025 48.4024 78.7198C47.7724 78.7898 48.5924 79.2898 48.8624 80.1998C49.1324 81.1098 49.2924 83.2899 48.3424 84.1098C48.1024 84.3198 46.1524 85.0598 46.8024 85.5398C48.6824 86.9298 49.4224 88.4698 39.6424 88.6398C37.7081 88.6906 35.7728 88.597 33.8524 88.3598C33.3385 88.2641 32.8309 88.1372 32.3324 87.9798C32.1761 87.7693 32.0794 87.5206 32.0524 87.2598C32.0444 86.9361 32.1202 86.6157 32.2724 86.3299C32.4213 86.098 32.5078 85.8317 32.5236 85.5567C32.5394 85.2816 32.4838 85.0071 32.3624 84.7598C32.239 84.5131 32.0532 84.3029 31.8233 84.1503C31.5935 83.9977 31.3277 83.9079 31.0524 83.8898C30.8056 83.8139 30.5978 83.6455 30.4724 83.4198C30.3233 83.1572 30.225 82.8688 30.1824 82.5698C29.9624 81.1498 30.7424 80.1498 30.6124 79.9698C30.3424 79.6298 28.6124 79.5399 28.6124 77.2099C28.528 76.943 28.528 76.6567 28.6124 76.3898C28.7172 76.2045 28.8646 76.0469 29.0424 75.9299L28.6324 75.9899C28.6324 75.9899 30.5624 74.1798 29.1024 73.4998C28.8651 73.3995 28.6403 73.272 28.4324 73.1198C28.3024 73.0298 28.1024 72.8298 28.0424 72.7798C28.1358 72.6485 28.2468 72.5308 28.3724 72.4299C31.3724 70.2599 44.9824 70.0098 48.3724 71.9398C48.4877 71.9935 48.5981 72.057 48.7024 72.1298Z" fill="#FDBE14"/>
<path fill-rule="evenodd" clip-rule="evenodd" d="M29.4519 75.9004C31.2519 75.0204 42.7619 73.8304 47.0119 75.0204C47.4493 75.0536 47.8818 75.1341 48.3019 75.2604C48.7919 75.5504 49.5419 75.9704 49.8219 75.4704C49.8944 75.3547 49.9425 75.2253 49.9632 75.0903C49.9838 74.9553 49.9766 74.8175 49.9419 74.6853C49.9072 74.5532 49.8459 74.4296 49.7616 74.3221C49.6773 74.2146 49.5719 74.1256 49.4519 74.0604C45.5419 71.1104 33.2619 72.7204 28.2219 74.0604C28.0696 74.1352 27.9353 74.2421 27.8281 74.3735C27.7208 74.505 27.6432 74.6581 27.6005 74.8223C27.5578 74.9865 27.551 75.1579 27.5806 75.325C27.6101 75.4921 27.6754 75.6508 27.7719 75.7904C28.1519 76.4904 28.7719 76.2904 29.4519 75.9004Z" fill="#FDBE14"/>
<path fill-rule="evenodd" clip-rule="evenodd" d="M29.7719 80.3699C29.9419 80.2999 30.9619 80.2799 31.3019 80.2299C31.9819 80.1199 32.8819 80.0799 33.9019 80.0199C35.6119 79.9099 37.6719 79.8099 39.7419 79.7999C41.8119 79.7899 43.8219 79.8599 45.5619 79.9499C46.3919 79.9499 47.1519 79.9499 47.8019 80.0699C48.2413 80.0951 48.6769 80.1654 49.1019 80.2799C49.3375 80.4028 49.6094 80.437 49.8681 80.3765C50.1269 80.3159 50.3553 80.1646 50.5119 79.9499C50.5792 79.8443 50.6231 79.7255 50.6408 79.6016C50.6585 79.4776 50.6495 79.3513 50.6145 79.2311C50.5795 79.1109 50.5192 78.9995 50.4377 78.9045C50.3562 78.8094 50.2554 78.7329 50.1419 78.6799C49.3119 78.1199 47.8419 78.4499 45.9419 78.1099C43.8905 77.7962 41.8171 77.6491 39.7419 77.6699C37.6776 77.6349 35.6131 77.7351 33.5619 77.9699C31.4119 78.2299 29.3419 78.4699 28.6719 78.8699C28.0019 79.2699 28.2419 79.3299 28.6219 79.9199C29.0019 80.5099 29.0719 80.7099 29.7719 80.3699Z" fill="#FDBE14"/>
<path fill-rule="evenodd" clip-rule="evenodd" d="M30.4371 86.4301C30.6935 86.3714 30.9545 86.3346 31.2171 86.3201C31.9071 86.2401 32.7971 86.2001 33.8171 86.1501C35.5271 86.0601 37.5871 85.9901 39.6571 85.9801C41.7271 85.9701 43.7471 86.0301 45.4771 86.1001C46.3171 86.1001 47.0671 86.1001 47.7171 86.1901C48.1546 86.2088 48.5896 86.2657 49.0171 86.3601C49.2525 86.4599 49.5121 86.4874 49.7632 86.4394C50.0142 86.3913 50.2453 86.2697 50.4271 86.0901C50.7171 85.7501 50.5571 85.3001 50.0571 85.0901C48.7289 84.4928 47.3149 84.1081 45.8671 83.9501C43.8067 83.7022 41.7323 83.5886 39.6571 83.6101C37.5945 83.5794 35.5317 83.6561 33.4771 83.8401C31.9661 83.928 30.4749 84.2276 29.0471 84.7301C28.3771 85.0001 28.1571 85.6001 28.5371 86.0601C28.7823 86.3018 29.0933 86.4659 29.4313 86.5317C29.7693 86.5975 30.1192 86.5622 30.4371 86.4301Z" fill="#FDBE14"/>
<path fill-rule="evenodd" clip-rule="evenodd" d="M16.4339 8.44955C16.3146 8.33888 16.2189 8.20528 16.1524 8.05676C16.086 7.90824 16.0501 7.74786 16.0471 7.58517C16.044 7.42249 16.0738 7.26085 16.1347 7.10995C16.1956 6.95905 16.2862 6.82199 16.4013 6.70694C16.5163 6.59188 16.6534 6.50122 16.8043 6.44037C16.9552 6.37951 17.1168 6.34971 17.2795 6.35275C17.4422 6.3558 17.6026 6.39161 17.7511 6.45807C17.8996 6.52453 18.0332 6.62028 18.1439 6.73956C24.2739 12.8596 24.6039 13.0096 24.6039 13.0096C24.8729 13.1888 25.0597 13.4674 25.1235 13.7842C25.1872 14.1011 25.1226 14.4303 24.9439 14.6996C24.8553 14.833 24.741 14.9475 24.6078 15.0364C24.4746 15.1254 24.3251 15.187 24.1678 15.2177C24.0106 15.2484 23.8489 15.2476 23.692 15.2153C23.5351 15.183 23.3862 15.1198 23.2539 15.0295C23.2539 15.0295 22.7739 14.7496 16.4339 8.44955Z" fill="#FDBE14"/>
<path fill-rule="evenodd" clip-rule="evenodd" d="M2.59923 20.4597C2.44675 20.3954 2.30908 20.3005 2.19473 20.1809C2.08039 20.0613 1.99179 19.9195 1.93442 19.7643C1.87705 19.609 1.85213 19.4437 1.86119 19.2785C1.87026 19.1133 1.9131 18.9516 1.98711 18.8036C2.06111 18.6556 2.1647 18.5244 2.29144 18.418C2.41819 18.3116 2.56541 18.2323 2.724 18.1851C2.88259 18.1379 3.04919 18.1237 3.21349 18.1434C3.37779 18.1631 3.53631 18.2163 3.67923 18.2997C5.67923 19.2997 12.8992 21.4297 12.9192 21.4297C13.206 21.5404 13.4405 21.7553 13.5757 22.0314C13.7109 22.3075 13.7369 22.6245 13.6484 22.9189C13.56 23.2133 13.3636 23.4635 13.0986 23.6194C12.8336 23.7753 12.5196 23.8254 12.2192 23.7597C8.9583 22.8247 5.74743 21.7233 2.59923 20.4597Z" fill="#FDBE14"/>
<path fill-rule="evenodd" clip-rule="evenodd" d="M32.4311 1.36031C32.3915 1.04208 32.4799 0.721134 32.6768 0.468002C32.8736 0.21487 33.163 0.0502492 33.4811 0.0102995C33.793 -0.0304766 34.1086 0.0507765 34.362 0.237106C34.6154 0.423436 34.7871 0.700442 34.8411 1.0103C35.2685 4.40631 36.0152 7.75447 37.0711 11.0103C37.1806 11.314 37.1653 11.6487 37.0284 11.9411C36.8916 12.2335 36.6445 12.4598 36.3411 12.5703C36.036 12.6765 35.7014 12.6585 35.4095 12.52C35.1176 12.3816 34.8919 12.1338 34.7811 11.8303C33.6788 8.41966 32.8921 4.91492 32.4311 1.36031Z" fill="#FDBE14"/>
<path fill-rule="evenodd" clip-rule="evenodd" d="M48.2317 13.0596C48.0314 13.3101 47.7398 13.4709 47.421 13.5065C47.1023 13.5421 46.7824 13.4497 46.5317 13.2496C46.408 13.1513 46.3049 13.0296 46.2283 12.8913C46.1518 12.7531 46.1033 12.6011 46.0856 12.4441C46.068 12.2871 46.0815 12.1281 46.1255 11.9763C46.1694 11.8245 46.2429 11.6829 46.3417 11.5596C48.9617 8.27961 51.3417 5.70962 51.3417 5.69962C51.5617 5.46974 51.8633 5.33574 52.1814 5.32667C52.4994 5.31759 52.8083 5.43414 53.041 5.6511C53.2737 5.86805 53.4116 6.16795 53.4249 6.48584C53.4381 6.80374 53.3256 7.11407 53.1117 7.34961C53.1117 7.34961 50.7717 9.90961 48.2317 13.0596Z" fill="#FDBE14"/>
<path fill-rule="evenodd" clip-rule="evenodd" d="M60.457 21.4104C60.3329 21.5257 60.1863 21.6139 60.0263 21.6695C59.8663 21.725 59.6965 21.7466 59.5277 21.7329C59.3588 21.7192 59.1947 21.6706 59.0458 21.59C58.8968 21.5094 58.7663 21.3987 58.6624 21.2649C58.5586 21.1311 58.4838 20.9771 58.4427 20.8128C58.4016 20.6485 58.3952 20.4775 58.4238 20.3106C58.4525 20.1436 58.5156 19.9845 58.6091 19.8433C58.7026 19.7021 58.8245 19.5819 58.967 19.4904C60.967 17.9704 70.637 12.1404 70.657 12.1304C70.7935 12.0483 70.945 11.9939 71.1025 11.9704C71.2601 11.9468 71.4208 11.9545 71.5754 11.993C71.73 12.0316 71.8755 12.1002 72.0036 12.195C72.1317 12.2897 72.2399 12.4088 72.322 12.5454C72.404 12.682 72.4584 12.8334 72.482 12.9909C72.5055 13.1485 72.4978 13.3092 72.4593 13.4638C72.4208 13.6185 72.3522 13.7639 72.2574 13.892C72.1626 14.0201 72.0435 14.1283 71.907 14.2104C71.907 14.2104 62.347 19.9404 60.457 21.4104Z" fill="#FDBE14"/>
<path fill-rule="evenodd" clip-rule="evenodd" d="M68.0784 30.2104C67.9194 30.239 67.7563 30.2359 67.5985 30.201C67.4407 30.1661 67.2915 30.1002 67.1594 30.0072C67.0273 29.9142 66.9149 29.7958 66.829 29.659C66.743 29.5222 66.685 29.3697 66.6584 29.2104C66.6032 28.8895 66.6775 28.5599 66.865 28.2937C67.0524 28.0275 67.3377 27.8465 67.6584 27.7903L74.5184 26.5103C74.6747 26.4808 74.8353 26.4823 74.9909 26.5148C75.1466 26.5473 75.2944 26.6102 75.4258 26.6998C75.5572 26.7894 75.6696 26.904 75.7567 27.0371C75.8438 27.1701 75.9039 27.3191 75.9334 27.4753C75.963 27.6316 75.9614 27.7922 75.9289 27.9479C75.8964 28.1036 75.8336 28.2513 75.744 28.3827C75.6544 28.5141 75.5398 28.6265 75.4067 28.7136C75.2736 28.8007 75.1247 28.8608 74.9684 28.8903L68.0784 30.2104Z" fill="#FDBE14"/>
<path fill-rule="evenodd" clip-rule="evenodd" d="M6.88335 32.9597C7.20426 32.9836 7.50255 33.134 7.71259 33.3778C7.92263 33.6216 8.02721 33.9388 8.00334 34.2597C7.97948 34.5806 7.82911 34.8789 7.58532 35.0889C7.34152 35.299 7.02425 35.4036 6.70334 35.3797L1.12336 34.9497C0.802443 34.9259 0.504157 34.7755 0.294116 34.5317C0.0840757 34.2879 -0.0205246 33.9706 0.00334488 33.6497C0.0272144 33.3288 0.177593 33.0305 0.42139 32.8205C0.665187 32.6104 0.982436 32.5058 1.30335 32.5297L6.88335 32.9597Z" fill="#FDBE14"/>
<path fill-rule="evenodd" clip-rule="evenodd" d="M25.6955 25.5402C25.5444 25.5176 25.4005 25.4606 25.2748 25.3737C25.1492 25.2867 25.0451 25.1722 24.9706 25.0388C24.8961 24.9054 24.8532 24.7567 24.8451 24.6041C24.8371 24.4515 24.8641 24.2991 24.9241 24.1586C24.9841 24.0181 25.0755 23.8932 25.1912 23.7935C25.307 23.6938 25.4441 23.622 25.592 23.5835C25.7399 23.545 25.8946 23.541 26.0443 23.5716C26.1939 23.6022 26.3346 23.6668 26.4555 23.7602C36.3655 28.0102 41.1655 25.3802 44.3655 23.6202L45.2355 23.1502C45.4516 23.1007 45.6781 23.1245 45.8793 23.2178C46.0805 23.311 46.2449 23.4685 46.3468 23.6655C46.4487 23.8624 46.4823 24.0876 46.4422 24.3057C46.4022 24.5238 46.2907 24.7224 46.1255 24.8702L45.2955 25.3202C41.7655 27.2902 36.4755 30.1602 25.6955 25.5402Z" fill="#FDBE14"/>
</g>
<defs>
<clipPath id="clip0_161_6452">
<rect width="75.92" height="95.53" fill="white"/>
</clipPath>
</defs>
</svg>
