<svg width="136" height="136" viewBox="0 0 136 136" fill="none" xmlns="http://www.w3.org/2000/svg">
<circle cx="68" cy="68" r="68" fill="white"/>
<path d="M68 0C54.5509 0 41.4038 3.98813 30.2212 11.4601C19.0387 18.932 10.323 29.5521 5.17622 41.9775C0.0294633 54.4029 -1.31716 68.0754 1.30663 81.2661C3.93043 94.4568 10.4068 106.573 19.9168 116.083C29.4267 125.593 41.5432 132.07 54.7339 134.693C67.9246 137.317 81.5971 135.971 94.0225 130.824C106.448 125.677 117.068 116.961 124.54 105.779C132.012 94.5962 136 81.4491 136 68C136 59.0701 134.241 50.2276 130.824 41.9775C127.406 33.7274 122.398 26.2311 116.083 19.9167C109.769 13.6024 102.273 8.59351 94.0225 5.17619C85.7723 1.75887 76.9299 0 68 0ZM54.4 98.6V37.4L95.2 68L54.4 98.6Z" fill="#775FF1"/>
</svg>
