<svg width="23" height="22" viewBox="0 0 23 22" fill="none" xmlns="http://www.w3.org/2000/svg">
<mask id="path-1-inside-1_161_6671" fill="white">
<path d="M21.5272 7.73056L15.0639 6.79124L12.1747 0.933837C12.0958 0.773465 11.9659 0.64364 11.8056 0.564727C11.4034 0.366171 10.9146 0.531634 10.7135 0.933837L7.82426 6.79124L1.36101 7.73056C1.18281 7.75602 1.0199 7.84002 0.895162 7.9673C0.744366 8.1223 0.66127 8.33081 0.664134 8.54704C0.666998 8.76327 0.755587 8.96951 0.910436 9.12046L5.58668 13.6796L4.4819 20.1174C4.45599 20.2672 4.47256 20.4212 4.52974 20.562C4.58691 20.7028 4.68239 20.8248 4.80536 20.9141C4.92833 21.0034 5.07387 21.0565 5.22546 21.0673C5.37706 21.0781 5.52865 21.0462 5.66305 20.9753L11.4441 17.9358L17.2251 20.9753C17.3829 21.0593 17.5662 21.0873 17.7419 21.0567C18.1848 20.9804 18.4826 20.5603 18.4063 20.1174L17.3015 13.6796L21.9777 9.12046C22.105 8.99572 22.189 8.8328 22.2145 8.65461C22.2832 8.20913 21.9726 7.79675 21.5272 7.73056Z"/>
</mask>
<path d="M21.5272 7.73056L21.8211 5.75227L21.8148 5.75136L21.5272 7.73056ZM15.0639 6.79124L13.2703 7.67599L13.7355 8.61919L14.7763 8.77045L15.0639 6.79124ZM12.1747 0.933837L10.3802 1.81685L10.381 1.81859L12.1747 0.933837ZM11.8056 0.564727L10.9202 2.3581L10.9225 2.35924L11.8056 0.564727ZM10.7135 0.933837L8.92462 0.0394001L8.91984 0.0490892L10.7135 0.933837ZM7.82426 6.79124L8.1119 8.77045L9.15267 8.61919L9.61792 7.67599L7.82426 6.79124ZM1.36101 7.73056L1.64385 9.71047L1.64865 9.70977L1.36101 7.73056ZM0.895162 7.9673L-0.533273 6.56744L-0.538321 6.57263L0.895162 7.9673ZM0.910436 9.12046L2.30661 7.68843L2.30648 7.6883L0.910436 9.12046ZM5.58668 13.6796L7.55787 14.0179L7.73571 12.9816L6.98285 12.2476L5.58668 13.6796ZM4.4819 20.1174L6.45263 20.4583L6.45308 20.4557L4.4819 20.1174ZM4.52974 20.562L2.67664 21.3144L2.67664 21.3144L4.52974 20.562ZM4.80536 20.9141L3.63005 22.5323L3.63007 22.5323L4.80536 20.9141ZM5.22546 21.0673L5.36773 19.0724L5.3677 19.0724L5.22546 21.0673ZM5.66305 20.9753L4.73233 19.205L4.72924 19.2067L5.66305 20.9753ZM11.4441 17.9358L12.3748 16.1656L11.4441 15.6763L10.5134 16.1656L11.4441 17.9358ZM17.2251 20.9753L18.1648 19.2097L18.1558 19.205L17.2251 20.9753ZM17.7419 21.0567L17.4021 19.0858L17.3992 19.0863L17.7419 21.0567ZM18.4063 20.1174L16.4351 20.4557L16.4354 20.4572L18.4063 20.1174ZM17.3015 13.6796L15.9053 12.2476L15.1525 12.9816L15.3303 14.0179L17.3015 13.6796ZM21.9777 9.12046L23.3739 10.5525L23.3776 10.5489L21.9777 9.12046ZM22.2145 8.65461L20.2379 8.34965L20.2362 8.3607L20.2346 8.37177L22.2145 8.65461ZM21.8148 5.75136L15.3516 4.81203L14.7763 8.77045L21.2395 9.70977L21.8148 5.75136ZM16.8576 5.90649L13.9683 0.0490891L10.381 1.81859L13.2703 7.67599L16.8576 5.90649ZM13.9692 0.050824C13.6954 -0.505653 13.2451 -0.955967 12.6886 -1.22979L10.9225 2.35924C10.6868 2.24325 10.4962 2.05258 10.3802 1.81685L13.9692 0.050824ZM12.6909 -1.22865C11.2957 -1.9174 9.61492 -1.34113 8.92465 0.0394132L12.5024 1.82826C12.2143 2.4044 11.511 2.64974 10.9202 2.3581L12.6909 -1.22865ZM8.91984 0.0490892L6.0306 5.90649L9.61792 7.67599L12.5072 1.81859L8.91984 0.0490892ZM7.53661 4.81203L1.07336 5.75136L1.64865 9.70977L8.1119 8.77045L7.53661 4.81203ZM1.07816 5.75066C0.456373 5.83949 -0.106769 6.13225 -0.533264 6.56745L2.32359 9.36716C2.14656 9.5478 1.90926 9.67255 1.64385 9.71046L1.07816 5.75066ZM-0.538321 6.57263C-1.05878 7.10757 -1.34557 7.82725 -1.33569 8.57353L2.66396 8.52055C2.66812 8.83438 2.54751 9.13702 2.32865 9.36198L-0.538321 6.57263ZM-1.33569 8.57353C-1.32581 9.31981 -1.02005 10.0316 -0.485604 10.5526L2.30648 7.6883C2.53122 7.90738 2.6598 8.20672 2.66396 8.52055L-1.33569 8.57353ZM-0.485735 10.5525L4.19051 15.1116L6.98285 12.2476L2.30661 7.68843L-0.485735 10.5525ZM3.6155 13.3413L2.51071 19.7791L6.45308 20.4557L7.55787 14.0179L3.6155 13.3413ZM2.51117 19.7765C2.42156 20.2945 2.47888 20.8273 2.67664 21.3144L6.38283 19.8096C6.46625 20.0151 6.49043 20.2398 6.45263 20.4583L2.51117 19.7765ZM2.67664 21.3144C2.87441 21.8015 3.20469 22.2234 3.63005 22.5323L5.98067 19.2959C6.16009 19.4262 6.29941 19.6042 6.38283 19.8096L2.67664 21.3144ZM3.63007 22.5323C4.05542 22.8413 4.55883 23.0248 5.08322 23.0622L5.3677 19.0724C5.58891 19.0881 5.80125 19.1656 5.98066 19.2959L3.63007 22.5323ZM5.0832 23.0622C5.60759 23.0996 6.13197 22.9893 6.59686 22.7439L4.72924 19.2067C4.92534 19.1031 5.14653 19.0566 5.36773 19.0724L5.0832 23.0622ZM6.59377 22.7455L12.3748 19.7061L10.5134 16.1656L4.73233 19.205L6.59377 22.7455ZM10.5134 19.7061L16.2944 22.7455L18.1558 19.205L12.3748 16.1656L10.5134 19.7061ZM16.2854 22.7408C16.8443 23.0382 17.4799 23.1323 18.0846 23.0272L17.3992 19.0863C17.6525 19.0422 17.9216 19.0803 18.1648 19.2098L16.2854 22.7408ZM18.0817 23.0276C19.6082 22.7645 20.6421 21.3139 20.3772 19.7776L16.4354 20.4572C16.3232 19.8067 16.7614 19.1963 17.4021 19.0858L18.0817 23.0276ZM20.3775 19.7791L19.2727 13.3413L15.3303 14.0179L16.4351 20.4557L20.3775 19.7791ZM18.6977 15.1116L23.3739 10.5525L20.5816 7.68843L15.9053 12.2476L18.6977 15.1116ZM23.3776 10.5489C23.8128 10.1224 24.1055 9.55925 24.1944 8.93746L20.2346 8.37177C20.2725 8.10636 20.3972 7.86905 20.5779 7.69203L23.3776 10.5489ZM24.1911 8.95957C24.4325 7.39484 23.34 5.97795 21.8211 5.75228L21.2333 9.70885C20.6053 9.61555 20.1339 9.02343 20.2379 8.34965L24.1911 8.95957Z" fill="#FC9F4A" mask="url(#path-1-inside-1_161_6671)"/>
</svg>
