<svg width="22" height="22" viewBox="0 0 22 22" fill="none" xmlns="http://www.w3.org/2000/svg">
<path d="M20.9959 7.73056L14.5327 6.79124L11.6434 0.933837C11.5645 0.773465 11.4347 0.64364 11.2743 0.564727C10.8721 0.366171 10.3834 0.531634 10.1823 0.933837L7.29301 6.79124L0.829755 7.73056C0.651564 7.75602 0.488646 7.84002 0.363912 7.9673C0.213116 8.1223 0.13002 8.33081 0.132884 8.54704C0.135748 8.76327 0.224337 8.96951 0.379186 9.12046L5.05543 13.6796L3.95065 20.1174C3.92474 20.2672 3.94131 20.4212 3.99849 20.562C4.05566 20.7028 4.15114 20.8248 4.27411 20.9141C4.39708 21.0034 4.54262 21.0565 4.69421 21.0673C4.84581 21.0781 4.9974 21.0462 5.1318 20.9753L10.9128 17.9358L16.6939 20.9753C16.8517 21.0593 17.035 21.0873 17.2106 21.0567C17.6536 20.9804 17.9514 20.5603 17.875 20.1174L16.7702 13.6796L21.4465 9.12046C21.5738 8.99572 21.6578 8.8328 21.6832 8.65461C21.752 8.20913 21.4414 7.79675 20.9959 7.73056Z" fill="#FC9F4A"/>
</svg>
