<svg width="23" height="22" viewBox="0 0 23 22" fill="none" xmlns="http://www.w3.org/2000/svg">
<path d="M21.6543 7.21178L15.4418 6.66706L13.0159 0.895571C12.5795 -0.154969 11.0905 -0.154969 10.6541 0.895571L8.22817 6.68003L2.02854 7.21178C0.899 7.30257 0.436915 8.72923 1.29691 9.48147L6.0076 13.6058L4.59567 19.7275C4.33896 20.8429 5.53268 21.7248 6.50819 21.1282L11.835 17.8858L17.1618 21.1412C18.1373 21.7378 19.331 20.8558 19.0743 19.7404L17.6624 13.6058L22.3731 9.48147C23.2331 8.72923 22.7838 7.30257 21.6543 7.21178ZM11.835 15.4605V3.39871L14.0299 8.63844L19.6519 9.13129L15.3905 12.8665L16.674 18.4175L11.835 15.4605Z" fill="#FC9F4A"/>
</svg>
