<svg width="89" height="61" viewBox="0 0 89 61" fill="none" xmlns="http://www.w3.org/2000/svg">
<g clip-path="url(#clip0_161_6494)">
<path fill-rule="evenodd" clip-rule="evenodd" d="M88.6324 26.2003C88.0724 16.7603 85.7824 8.13028 83.9124 5.49028C83.0039 4.45025 81.8228 3.6848 80.5024 3.28028C78.5691 2.52906 76.5559 2.00228 74.5024 1.71028L73.5024 1.57028L71.3524 1.28028V1.13028C70.5524 1.01028 69.6324 0.900282 68.6324 0.800282V0.910283L67.4424 0.780278C64.2824 0.480278 60.8124 0.25028 57.2024 0.11028H56.2724L53.4024 0.030278H51.4024C41.6324 -0.079722 25.7824 0.200279 16.5024 1.18028C13.3446 1.39419 10.2723 2.29882 7.50242 3.83028C2.60242 6.83028 -0.627584 12.7103 0.0924158 25.1703C0.562416 33.0403 0.782424 39.0703 1.63242 43.6903C2.0445 46.5419 3.06785 49.2708 4.63242 51.6903C6.63242 54.5303 9.63242 56.4903 14.3124 57.7703C18.2224 58.8403 23.3924 59.4603 30.3124 59.7703C47.3924 60.6303 61.5824 60.8603 71.4424 58.1903C78.6424 56.2503 83.6224 52.7703 86.0124 47.1903C88.4624 41.3303 89.0624 33.5303 88.6324 26.2003ZM80.8724 45.0703C78.7724 50.0003 74.4124 53.0703 68.0924 54.7603C59.4524 57.1003 47.0024 56.9003 32.0224 56.1403C27.3065 56.028 22.6149 55.4281 18.0224 54.3503C13.9024 53.2303 11.2824 51.5103 9.53242 49.0203C8.16178 46.9027 7.26153 44.5156 6.89243 42.0203C6.15243 38.0203 5.95243 32.6803 5.54243 25.7803C4.91243 14.8603 7.74243 9.66028 12.0424 7.07028C14.4811 5.71878 17.1898 4.92633 19.9724 4.75028C28.1024 3.89028 41.9724 3.64028 50.5724 3.75028H52.3524L54.8724 3.82028H55.6824C58.8524 3.94028 61.8924 4.14028 64.6824 4.41028L65.6824 4.52028V4.43028C66.5624 4.52028 67.3724 4.62028 68.0724 4.72028V4.85028L69.9524 5.11028L70.8124 5.23028C72.6034 5.48595 74.3585 5.94906 76.0424 6.61028C77.2024 6.96223 78.2413 7.63058 79.0424 8.54028C80.6824 10.8603 82.6924 18.4303 83.1824 26.7003C83.5624 33.1203 83.0324 40.0003 80.8724 45.0703Z" fill="#775FF1"/>
<path fill-rule="evenodd" clip-rule="evenodd" d="M52.4185 26.6994L43.0785 20.4494C42.5083 20.0657 41.8468 19.8396 41.161 19.7938C40.4752 19.7481 39.7896 19.8843 39.1734 20.1889C38.5573 20.4934 38.0325 20.9553 37.6523 21.5279C37.2722 22.1005 37.0501 22.7634 37.0085 23.4494L36.2585 34.6594C36.2133 35.3434 36.3487 36.0273 36.6512 36.6425C36.9536 37.2577 37.4125 37.7825 37.9818 38.1644C38.5511 38.5463 39.2108 38.7718 39.8947 38.8183C40.5786 38.8648 41.2628 38.7307 41.8785 38.4294L51.9685 33.4294C52.5806 33.1266 53.1025 32.6684 53.4819 32.1006C53.8613 31.5328 54.085 30.8753 54.1306 30.1939C54.1761 29.5125 54.042 28.8311 53.7415 28.2179C53.4411 27.6046 52.9849 27.081 52.4185 26.6994Z" fill="#775FF1"/>
</g>
<defs>
<clipPath id="clip0_161_6494">
<rect width="88.76" height="60.37" fill="white"/>
</clipPath>
</defs>
</svg>
