<svg width="91" height="67" viewBox="0 0 91 67" fill="none" xmlns="http://www.w3.org/2000/svg">
<g clip-path="url(#clip0_161_6489)">
<path fill-rule="evenodd" clip-rule="evenodd" d="M16.966 5.69758C13.7301 5.92065 10.5812 6.85405 7.73883 8.43272C2.71517 11.489 -0.59635 17.643 0.14182 30.5519C0.623681 38.6951 0.849242 44.9424 1.72069 49.7392C2.14317 52.6936 3.19234 55.5208 4.7964 58.0274C6.84688 60.9697 9.92258 63.0003 14.7207 64.3265C18.7294 65.435 24.0298 66.0773 31.1245 66.3985C48.6355 67.2895 63.1836 67.5278 73.2925 64.7616C80.6742 62.7517 85.7798 59.1463 88.2301 53.3135C90.7625 47.2838 91.3776 39.2028 90.9368 31.6087C90.3626 21.8286 88.0148 12.8773 86.0977 10.1525C85.1691 9.0716 83.9572 8.2779 82.6016 7.86288C79.593 6.74451 76.4471 6.04736 73.2514 5.79082C73.2514 5.54218 73.2514 5.2728 73.2514 4.97235C73.2149 4.18752 72.9503 3.43099 72.4909 2.79716C72.0314 2.16333 71.3973 1.6803 70.6679 1.40841C69.0992 0.672829 66.5669 0.486351 63.2554 0.185903C61.9123 0.0823001 60.8461 -0.0109349 59.9746 -0.00057465C59.0506 -0.0294059 58.1303 0.129131 57.268 0.465651C55.9454 1.08727 55.1663 2.15435 54.8894 4.5165C45.1907 4.31965 27.2081 4.58905 17.0275 5.67688L16.966 5.69758ZM36.5275 57.0017L36.3634 56.9292C35.2372 57.1049 34.0992 57.1915 32.9597 57.1882C30.0024 57.1869 27.0744 56.5957 24.3437 55.4487C21.613 54.3016 19.1331 52.6212 17.0463 50.5037C14.9595 48.3863 13.3067 45.8735 12.1828 43.1093C11.0589 40.3451 10.4859 37.384 10.4967 34.3956C10.5196 31.4259 11.1269 28.4904 12.2833 25.7601C13.4397 23.0299 15.1221 20.5594 17.2325 18.4925C19.3167 16.4566 21.7799 14.8588 24.4796 13.7917C27.1792 12.7247 30.0616 12.2096 32.9597 12.2764V11.9138C35.016 11.8885 37.0658 12.1536 39.0496 12.7012C43.6256 12.5375 48.1798 13.412 52.3776 15.2601C55.3313 16.6495 57.8239 18.8733 59.5543 21.6628C66.8335 33.8361 64.5164 53.4067 47.8051 56.8878C43.2428 57.8409 38.5779 57.8409 36.5275 57.0017ZM46.0827 16.0579C47.1269 16.3426 48.1539 16.6885 49.1584 17.0939C52.3048 18.2632 54.9821 20.448 56.7759 23.3101C62.8248 33.6082 61.2869 50.2468 47.1592 53.6243C46.1339 53.8833 45.0164 54.0905 43.9912 54.2459C45.8001 53.2212 47.4626 51.9526 48.9328 50.4748C51.0362 48.3673 52.7041 45.8584 53.8395 43.0938C54.9749 40.3292 55.5552 37.3641 55.5466 34.3709C55.538 31.3777 54.9407 28.4161 53.7895 25.6582C52.6383 22.9003 50.956 20.4012 48.8406 18.3061C47.9836 17.4818 47.0612 16.7299 46.0827 16.0579ZM71.6213 17.9227C70.8729 17.9227 69.8784 17.9227 68.5456 17.8398C67.018 17.8398 65.7159 17.757 64.6497 17.6741C62.9991 17.5601 62.1071 17.9124 62.4044 15.975C62.835 13.3228 63.9013 14.0376 66.5771 14.1205C68.1854 14.0645 69.7953 14.1616 71.3855 14.4106C72.0314 14.5453 72.5338 14.711 72.6978 15.3637C73.2207 16.9488 73.1284 17.8916 71.6726 17.9227H71.6213ZM60.3437 17.9227C60.3437 15.8507 59.8414 13.1052 61.5637 11.5719C62.0559 11.1368 62.2404 11.3543 63.1529 11.1989C64.3245 11.0783 65.5037 11.0506 66.6797 11.116C69.7041 11.2404 71.9699 11.3232 73.354 12.0692C74.574 12.7426 74.8816 13.2192 75.0353 14.8354C75.0353 15.9439 75.0353 16.6277 75.0353 17.0628C75.1144 17.3067 75.132 17.5666 75.0866 17.8191C74.9123 19.4457 72.8823 20.2745 71.4163 20.3574C70.6678 20.4092 69.6836 20.3574 68.4431 20.3574C67.9612 20.3574 61.6868 19.7979 61.4305 19.6529C60.4052 19.0624 60.4052 19.0313 60.4052 17.9642L60.3437 17.9227ZM70.4833 5.49037L69.2633 5.35571C65.7467 5.00346 61.8508 4.76516 57.8114 4.63048C57.8813 4.24291 58.0591 3.88352 58.324 3.59445C58.3958 3.52193 58.5085 3.54264 58.6316 3.52192C58.9093 3.47554 59.191 3.45819 59.4723 3.47013C60.3437 3.47013 61.5227 3.53228 62.9581 3.65661C64.8726 3.71553 66.7808 3.90939 68.6686 4.23678C69.1081 4.31616 69.531 4.4703 69.9194 4.69264C70.0477 4.75626 70.1613 4.84627 70.2531 4.95689C70.3449 5.06751 70.4129 5.19627 70.4525 5.33497V5.44895L70.4833 5.49037ZM79.7104 14.6074C79.9565 16.3169 80.0795 18.3164 80.1718 20.5853C80.3256 24.574 80.3768 29.4019 80.5101 34.9965C80.7664 42.6942 80.7254 48.8793 79.8335 53.4378C79.4517 55.2447 78.611 56.9199 77.3939 58.2987C76.1769 59.6775 74.6256 60.7123 72.8926 61.3013L72.339 61.4567C62.4762 64.1296 48.2972 63.8188 31.2372 62.9278C25.9692 62.8076 20.727 62.1445 15.5921 60.949C11.7373 59.913 9.22541 58.3693 7.59528 56.0175C6.27193 53.9235 5.4084 51.5671 5.06294 49.1072C4.19149 44.4243 3.94546 38.3221 3.42259 30.3447C2.67417 19.2592 5.02196 13.7682 9.3177 11.1264C11.7772 9.75238 14.5017 8.93245 17.3043 8.7228C32.6438 6.9521 48.1134 6.63299 63.5117 7.76964C65.2546 7.91469 70.4218 8.52596 73.8871 9.04397C76.9628 9.49982 79.2286 11.2507 79.7207 14.6074H79.7104ZM79.977 58.1207L80.3461 57.354C81.2326 55.1784 81.8091 52.8866 82.0582 50.5473C82.5523 45.3484 82.6859 40.121 82.4581 34.9032C82.3145 29.2776 82.3248 24.4186 82.1095 20.3988C82.0109 18.2696 81.7814 16.1485 81.4226 14.048C81.2011 12.8314 80.8576 11.6407 80.3973 10.4944C81.503 10.7309 82.5281 11.256 83.3705 12.0174C85.1134 14.5349 87.0204 22.8128 87.4715 31.8055C87.8406 38.8712 87.3177 46.3928 84.9494 51.9874C83.8837 54.484 82.1199 56.6121 79.8745 58.1103L79.977 58.1207ZM32.6931 18.3164V17.9538C34.8862 17.9237 37.0635 18.3328 39.0993 19.1576C41.1352 19.9824 42.9891 21.2065 44.5543 22.7592C46.1194 24.3119 47.3647 26.1625 48.2183 28.2042C49.0719 30.2459 49.5168 32.4382 49.5275 34.6546C49.5828 36.9178 49.1895 39.1692 48.3707 41.2764C47.5519 43.3836 46.3241 45.304 44.7597 46.9244C43.1953 48.5448 41.3259 49.8326 39.2615 50.7118C37.1971 51.5911 34.9795 52.044 32.7392 52.044C30.4989 52.044 28.2814 51.5911 26.217 50.7118C24.1526 49.8326 22.2831 48.5448 20.7187 46.9244C19.1543 45.304 17.9265 43.3836 17.1077 41.2764C16.2889 39.1692 15.8956 36.9178 15.951 34.6546C15.9785 32.4466 16.4406 30.2661 17.3101 28.2402C18.1796 26.2143 19.4392 24.3835 21.0156 22.8542C22.5671 21.3533 24.3986 20.1791 26.4033 19.4001C28.4081 18.621 30.5461 18.2527 32.6931 18.3164ZM32.9597 14.7732C38.063 14.836 42.9353 16.933 46.5162 20.6079C50.0972 24.2828 52.0969 29.2382 52.0803 34.3956C51.9645 39.4549 49.8943 44.2676 46.3124 47.8044C42.7306 51.3412 37.9214 53.3213 32.9135 53.3213C27.9056 53.3213 23.0964 51.3412 19.5146 47.8044C15.9327 44.2676 13.8625 39.4549 13.7467 34.3956C13.7096 31.8297 14.1742 29.2816 15.1137 26.8975C16.0531 24.5134 17.4491 22.3402 19.2215 20.5024C22.8238 16.715 27.7625 14.5213 32.9597 14.4002V14.7732Z" fill="#FDBE14"/>
</g>
<defs>
<clipPath id="clip0_161_6489">
<rect width="91" height="67" fill="white"/>
</clipPath>
</defs>
</svg>
