<svg width="96" height="51" viewBox="0 0 96 51" fill="none" xmlns="http://www.w3.org/2000/svg">
<path d="M91.7622 50.6255C93.5595 50.6255 95.0165 49.1685 95.0165 47.3712C95.0165 45.5738 93.5595 44.1168 91.7622 44.1168C89.9648 44.1168 88.5078 45.5738 88.5078 47.3712C88.5078 49.1685 89.9648 50.6255 91.7622 50.6255Z" fill="#171C35"/>
<path d="M91.7622 28.8609C93.5595 28.8609 95.0165 27.4039 95.0165 25.6065C95.0165 23.8092 93.5595 22.3522 91.7622 22.3522C89.9648 22.3522 88.5078 23.8092 88.5078 25.6065C88.5078 27.4039 89.9648 28.8609 91.7622 28.8609Z" fill="#171C35"/>
<path d="M91.7622 7.09527C93.5595 7.09527 95.0165 5.63825 95.0165 3.84091C95.0165 2.04358 93.5595 0.586548 91.7622 0.586548C89.9648 0.586548 88.5078 2.04358 88.5078 3.84091C88.5078 5.63825 89.9648 7.09527 91.7622 7.09527Z" fill="#171C35"/>
<path d="M74.2075 50.6255C76.0048 50.6255 77.4619 49.1685 77.4619 47.3712C77.4619 45.5738 76.0048 44.1168 74.2075 44.1168C72.4101 44.1168 70.9531 45.5738 70.9531 47.3712C70.9531 49.1685 72.4101 50.6255 74.2075 50.6255Z" fill="#171C35"/>
<path d="M74.2075 28.8609C76.0048 28.8609 77.4619 27.4039 77.4619 25.6065C77.4619 23.8092 76.0048 22.3522 74.2075 22.3522C72.4101 22.3522 70.9531 23.8092 70.9531 25.6065C70.9531 27.4039 72.4101 28.8609 74.2075 28.8609Z" fill="#171C35"/>
<path d="M74.2075 7.09527C76.0048 7.09527 77.4619 5.63825 77.4619 3.84091C77.4619 2.04358 76.0048 0.586548 74.2075 0.586548C72.4101 0.586548 70.9531 2.04358 70.9531 3.84091C70.9531 5.63825 72.4101 7.09527 74.2075 7.09527Z" fill="#171C35"/>
<path d="M56.645 50.6255C58.4423 50.6255 59.8994 49.1685 59.8994 47.3712C59.8994 45.5738 58.4423 44.1168 56.645 44.1168C54.8477 44.1168 53.3906 45.5738 53.3906 47.3712C53.3906 49.1685 54.8477 50.6255 56.645 50.6255Z" fill="#171C35"/>
<path d="M56.645 28.8609C58.4423 28.8609 59.8994 27.4039 59.8994 25.6065C59.8994 23.8092 58.4423 22.3522 56.645 22.3522C54.8477 22.3522 53.3906 23.8092 53.3906 25.6065C53.3906 27.4039 54.8477 28.8609 56.645 28.8609Z" fill="#171C35"/>
<path d="M56.645 7.09527C58.4423 7.09527 59.8994 5.63825 59.8994 3.84091C59.8994 2.04358 58.4423 0.586548 56.645 0.586548C54.8477 0.586548 53.3906 2.04358 53.3906 3.84091C53.3906 5.63825 54.8477 7.09527 56.645 7.09527Z" fill="#171C35"/>
<path d="M39.0825 50.6255C40.8798 50.6255 42.3369 49.1685 42.3369 47.3712C42.3369 45.5738 40.8798 44.1168 39.0825 44.1168C37.2851 44.1168 35.8281 45.5738 35.8281 47.3712C35.8281 49.1685 37.2851 50.6255 39.0825 50.6255Z" fill="#171C35"/>
<path d="M39.0825 28.8609C40.8798 28.8609 42.3369 27.4039 42.3369 25.6065C42.3369 23.8092 40.8798 22.3522 39.0825 22.3522C37.2851 22.3522 35.8281 23.8092 35.8281 25.6065C35.8281 27.4039 37.2851 28.8609 39.0825 28.8609Z" fill="#171C35"/>
<path d="M39.0825 7.09527C40.8798 7.09527 42.3369 5.63825 42.3369 3.84091C42.3369 2.04358 40.8798 0.586548 39.0825 0.586548C37.2851 0.586548 35.8281 2.04358 35.8281 3.84091C35.8281 5.63825 37.2851 7.09527 39.0825 7.09527Z" fill="#171C35"/>
<path d="M21.5278 50.6255C23.3251 50.6255 24.7822 49.1685 24.7822 47.3712C24.7822 45.5738 23.3251 44.1168 21.5278 44.1168C19.7305 44.1168 18.2734 45.5738 18.2734 47.3712C18.2734 49.1685 19.7305 50.6255 21.5278 50.6255Z" fill="#171C35"/>
<path d="M21.5278 28.8609C23.3251 28.8609 24.7822 27.4039 24.7822 25.6065C24.7822 23.8092 23.3251 22.3522 21.5278 22.3522C19.7305 22.3522 18.2734 23.8092 18.2734 25.6065C18.2734 27.4039 19.7305 28.8609 21.5278 28.8609Z" fill="#171C35"/>
<path d="M21.5278 7.09527C23.3251 7.09527 24.7822 5.63825 24.7822 3.84091C24.7822 2.04358 23.3251 0.586548 21.5278 0.586548C19.7305 0.586548 18.2734 2.04358 18.2734 3.84091C18.2734 5.63825 19.7305 7.09527 21.5278 7.09527Z" fill="#171C35"/>
<path d="M3.96531 50.6258C5.76264 50.6258 7.21966 49.1687 7.21966 47.3714C7.21966 45.574 5.76264 44.117 3.96531 44.117C2.16797 44.117 0.710938 45.574 0.710938 47.3714C0.710938 49.1687 2.16797 50.6258 3.96531 50.6258Z" fill="#171C35"/>
<path d="M3.96531 28.8609C5.76264 28.8609 7.21966 27.4039 7.21966 25.6065C7.21966 23.8092 5.76264 22.3522 3.96531 22.3522C2.16797 22.3522 0.710938 23.8092 0.710938 25.6065C0.710938 27.4039 2.16797 28.8609 3.96531 28.8609Z" fill="#171C35"/>
<path d="M3.96531 7.09527C5.76264 7.09527 7.21966 5.63825 7.21966 3.84091C7.21966 2.04358 5.76264 0.586548 3.96531 0.586548C2.16797 0.586548 0.710938 2.04358 0.710938 3.84091C0.710938 5.63825 2.16797 7.09527 3.96531 7.09527Z" fill="#171C35"/>
</svg>
