<svg width="511" height="512" viewBox="0 0 511 512" fill="none" xmlns="http://www.w3.org/2000/svg">
<path fill-rule="evenodd" clip-rule="evenodd" d="M255.592 0.915039C276.552 0.915039 296.905 3.45906 316.39 8.22891C280.743 36.4733 248.421 66.6835 220.089 97.673C195.921 121.958 172.851 147.282 150.994 173.299L150.791 169.136C150.646 118.893 153.828 68.5327 160.91 19.0698C190.196 7.3617 222.172 0.915039 255.62 0.915039H255.592ZM356.315 21.5561C316.39 51.5053 278.575 84.8085 243.189 120.396L240.27 123.605C274.21 120.657 308.44 119.067 342.756 118.98C384.677 117.129 428.852 118.604 473.951 123.837C446.487 78.6224 405.348 42.6315 356.287 21.5561H356.315ZM492.802 161.534C504.51 190.819 510.958 222.763 510.958 256.241C510.958 277.2 508.413 297.551 503.643 317.035C475.427 281.39 445.216 249.07 414.222 220.74C389.939 196.572 364.613 173.531 338.594 151.646L342.756 151.444C393.004 151.3 443.364 154.48 492.83 161.562L492.802 161.534ZM490.287 356.959C460.334 317.035 427.031 279.223 391.441 243.837L388.232 240.918C391.182 274.858 392.771 309.115 392.858 343.43C394.709 385.348 393.235 429.52 388.001 474.618C433.217 447.155 469.211 406.018 490.287 356.959ZM350.302 493.439C321.016 505.147 289.07 511.594 255.592 511.594C234.633 511.594 214.28 509.05 194.792 504.28C230.44 476.064 262.761 445.826 291.093 414.864C315.264 390.551 338.334 365.255 360.19 339.208L360.392 343.371C360.536 393.616 357.327 443.975 350.273 493.439H350.302ZM154.867 490.923C194.792 460.974 232.607 427.671 267.994 392.084L270.914 388.874C236.974 391.823 202.744 393.413 168.426 393.5C126.507 395.351 82.3317 393.876 37.2313 388.643C64.6959 433.857 105.836 469.848 154.897 490.923H154.867ZM18.3822 350.945C6.67251 321.661 0.226562 289.688 0.226562 256.241C0.226562 235.28 2.76981 214.928 7.53991 195.445C35.7572 231.089 65.998 263.41 96.9898 291.741C121.275 315.908 146.6 338.977 172.647 360.833L168.484 361.035C118.21 361.179 67.905 357.999 18.41 350.917L18.3822 350.945ZM20.868 155.52C50.8202 195.445 84.124 233.257 119.712 268.642L122.923 271.532C119.973 237.622 118.382 203.365 118.297 169.049C116.446 127.132 117.92 82.9593 123.154 37.8615C77.9372 65.3248 41.9441 106.461 20.868 155.52Z" fill="white"/>
</svg>
