<svg width="146" height="97" viewBox="0 0 146 97" fill="none" xmlns="http://www.w3.org/2000/svg">
<g clip-path="url(#clip0_161_6686)">
<path fill-rule="evenodd" clip-rule="evenodd" d="M63.8744 16.2875C58.5123 21.8057 51.3962 31.1734 48.7094 36.4577C48.0278 37.6984 47.5317 39.0324 47.2372 40.417C47.0806 41.4789 46.28 42.5961 46.6676 43.1228C47.1636 43.8093 49.0312 43.9452 50.3964 43.7245L58.8025 42.5764C51.6592 43.9068 45.7123 45.086 41.9574 45.9369C35.8558 47.3362 35.7118 46.887 30.2683 51.6031C23.2158 57.7142 13.5563 67.891 12.0326 70.5077C11.247 71.7105 10.7223 73.0646 10.4922 74.4827C10.425 74.9625 10.4628 75.4512 10.6028 75.915C10.7429 76.3789 10.9818 76.8068 11.3033 77.1694C12.0726 78.0189 13.5448 78.5328 16 78.1442C20.3167 77.462 32.3463 73.3694 47.2117 67.9083C47.2206 67.9678 47.234 68.0264 47.252 68.0838C47.4979 73.0033 47.4898 77.2628 47.8311 80.4061C48.1152 83.1213 48.7436 85.1009 49.7404 86.2266C50.7373 87.3522 52.3644 88.005 54.6056 87.3987C56.4126 86.9125 58.8752 85.5269 62.1773 83.0153C65.0195 80.8245 69.8916 77.4193 75.7629 73.4053C85.6345 66.6579 98.3595 58.261 109.11 51.0966C111.44 49.5363 113.673 47.9983 115.776 46.613C120.844 43.1631 130.964 34.9942 136.515 32.7157C136.792 32.5997 137.033 32.41 137.211 32.1671C137.388 31.9242 137.496 31.6373 137.522 31.3376C137.549 31.0378 137.493 30.7366 137.36 30.4664C137.228 30.1963 137.024 29.9675 136.771 29.8048C136.676 29.5791 136.534 29.3769 136.352 29.2127C136.171 29.0486 135.956 28.9265 135.722 28.8553C135.722 28.8553 121.89 24.7327 106.42 21.027C99.7944 19.4687 92.876 17.9774 86.613 16.8386C79.4641 15.5951 72.9167 14.1112 68.9094 14.353C66.471 14.5019 65.5241 14.6677 63.9644 16.2771L63.8744 16.2875ZM51.0996 79.9848L115.271 42.1736C115.442 42.0663 115.576 41.9098 115.657 41.7248C115.737 41.5398 115.759 41.3349 115.721 41.1369L125.005 37.3763C121.831 39.3253 117.374 42.0813 112.267 45.3145C106.891 48.7124 100.822 52.6691 94.7031 56.6783C80.4358 66.0445 65.9467 75.8309 60.1167 80.3381C57.3135 82.52 55.2581 83.8019 53.7164 84.2375C52.9854 84.4051 52.4688 84.5236 52.1036 84.0944C51.4054 83.3312 51.1247 81.9284 50.8844 80.0752C50.9879 80.0671 51.0897 80.0437 51.1865 80.0059L51.0996 79.9848ZM50.5941 78.0488C50.3483 75.2325 50.1851 71.7919 49.928 67.942C49.9116 67.6092 49.7736 67.294 49.5402 67.0563L52.7708 65.8434C70.5858 59.1519 91.4101 50.9084 107.816 44.3348L50.5918 78.0391L50.5941 78.0488ZM13.6088 75.0094C13.6736 74.4853 13.8001 73.9707 13.9856 73.4763C15.5087 70.5775 17.4406 67.9127 19.7221 65.5638C26.3399 58.2289 32.3963 54.3058 36.6833 50.6757C39.2654 48.5138 45.0575 47.5548 57.8739 45.2825C69.0692 43.4126 83.53 41.153 96.957 39.0381L121.816 35.1017C105.041 41.8524 75.5553 53.6211 51.5811 62.669C34.4838 69.1345 20.2244 74.2411 15.4368 75.0621C14.9226 75.1678 14.3949 75.1918 13.8732 75.1334C13.7802 75.1186 13.6889 75.0949 13.6005 75.0625L13.6088 75.0094ZM50.4871 40.4514L50.5113 40.333C50.7107 39.6649 50.9627 39.0136 51.2649 38.3853C53.1811 34.5898 55.4442 30.9797 58.0254 27.6012C61.2287 23.3167 64.1546 17.4646 69.1288 17.278C73.0198 17.1551 79.0785 18.0741 85.9768 19.4776C92.1527 20.7287 98.954 22.3802 105.493 24.0508C113.772 26.1533 121.602 28.3076 127.042 29.8403C115.428 31.406 93.035 34.4179 75.3053 36.8732C63.3494 38.5584 53.4364 39.9802 50.4871 40.4514Z" fill="#3BB5D7"/>
</g>
<defs>
<clipPath id="clip0_161_6686">
<rect width="133.72" height="68.26" fill="white" transform="translate(0 29.8909) rotate(-12.9166)"/>
</clipPath>
</defs>
</svg>
