<svg width="45" height="35" viewBox="0 0 45 35" fill="none" xmlns="http://www.w3.org/2000/svg">
<path d="M4.49992 35C3.30647 35 2.1619 34.5903 1.318 33.861C0.474098 33.1317 0 32.1425 0 31.1111V21.6144C0 20.583 0.474098 19.5939 1.318 18.8646C2.1619 18.1353 3.30647 17.7256 4.49992 17.7256H10.7458C10.7458 16.3606 10.6513 14.9917 10.4668 13.6267C10.1878 12.18 9.71983 10.8928 9.07185 9.76889C8.41936 8.64111 7.58237 7.75833 6.55639 7.11278C5.5349 6.38944 4.23442 6.02778 2.65046 6.02778V0C5.25591 0 7.53287 0.482222 9.49034 1.44667C11.4308 2.40133 13.0991 3.71953 14.3728 5.30444C15.6511 7.05178 16.5933 8.9666 17.1627 10.9744C17.7365 13.1902 18.0173 15.4551 17.9997 17.7256V31.1111C17.9997 32.1425 17.5256 33.1317 16.6817 33.861C15.8378 34.5903 14.6932 35 13.4998 35H4.49992ZM31.4995 35C30.306 35 29.1614 34.5903 28.3175 33.861C27.4736 33.1317 26.9995 32.1425 26.9995 31.1111V21.6144C26.9995 20.583 27.4736 19.5939 28.3175 18.8646C29.1614 18.1353 30.306 17.7256 31.4995 17.7256H37.7453C37.7453 16.3606 37.6508 14.9917 37.4664 13.6267C37.1874 12.18 36.7194 10.8928 36.0714 9.76889C35.4189 8.64111 34.5819 7.75833 33.5559 7.11278C32.5344 6.38944 31.234 6.02778 29.65 6.02778V0C32.2554 0 34.5324 0.482222 36.4899 1.44667C38.4303 2.40133 40.0986 3.71953 41.3723 5.30444C42.6506 7.05178 43.5928 8.9666 44.1622 10.9744C44.736 13.1902 45.0168 15.4551 44.9992 17.7256V31.1111C44.9992 32.1425 44.5251 33.1317 43.6812 33.861C42.8373 34.5903 41.6928 35 40.4993 35H31.4995Z" fill="#FDBE14"/>
</svg>
