<svg width="39" height="35" viewBox="0 0 39 35" fill="none" xmlns="http://www.w3.org/2000/svg">
<path d="M35.1001 35C36.1344 35 37.1264 34.5903 37.8577 33.861C38.5891 33.1317 39 32.1425 39 31.1111V21.6144C39 20.583 38.5891 19.5939 37.8577 18.8646C37.1264 18.1353 36.1344 17.7256 35.1001 17.7256H29.687C29.687 16.3606 29.7689 14.9917 29.9288 13.6267C30.1706 12.18 30.5761 10.8928 31.1377 9.76889C31.7032 8.64111 32.4286 7.75833 33.3178 7.11278C34.2031 6.38944 35.3302 6.02778 36.7029 6.02778V0C34.4449 0 32.4715 0.482222 30.775 1.44667C29.0933 2.40133 27.6475 3.71953 26.5436 5.30444C25.4357 7.05178 24.6192 8.9666 24.1257 10.9744C23.6284 13.1902 23.385 15.4551 23.4003 17.7256V31.1111C23.4003 32.1425 23.8112 33.1317 24.5425 33.861C25.2739 34.5903 26.2659 35 27.3002 35H35.1001ZM11.7005 35C12.7348 35 13.7268 34.5903 14.4581 33.861C15.1895 33.1317 15.6004 32.1425 15.6004 31.1111V21.6144C15.6004 20.583 15.1895 19.5939 14.4581 18.8646C13.7268 18.1353 12.7348 17.7256 11.7005 17.7256H6.28737C6.28737 16.3606 6.36926 14.9917 6.52916 13.6267C6.77096 12.18 7.17655 10.8928 7.73814 9.76889C8.30363 8.64111 9.02902 7.75833 9.91821 7.11278C10.8035 6.38944 11.9306 6.02778 13.3033 6.02778V0C11.0453 0 9.07192 0.482222 7.37545 1.44667C5.69374 2.40133 4.24787 3.71953 3.14402 5.30444C2.03615 7.05178 1.21958 8.9666 0.726064 10.9744C0.228767 13.1902 -0.014588 15.4551 0.000675773 17.7256V31.1111C0.000675773 32.1425 0.41156 33.1317 1.14294 33.861C1.87432 34.5903 2.86628 35 3.90061 35H11.7005Z" fill="#FDBE14"/>
</svg>
