<svg width="211" height="231" viewBox="0 0 211 231" fill="none" xmlns="http://www.w3.org/2000/svg">
<path opacity="0.2" d="M136.886 1.27644C133.205 3.54462 134.408 1.91437 110.695 37.142C98.3068 55.6418 89.5292 70.3849 67.0188 110.503C57.2501 127.869 48.968 142.329 48.614 142.754C46.9151 144.597 56.8254 120.71 75.3009 78.9614C86.4145 53.6571 96.7495 28.211 98.0237 22.6823C99.3687 17.1537 97.8821 14.3184 94.1304 15.3108C92.7146 15.6652 86.8393 22.8241 75.7964 37.709C65.3199 51.7433 55.0557 68.6129 41.3229 94.2007C26.3867 121.986 21.644 130.775 20.9361 131.413C20.4406 131.909 20.3698 131.696 20.7238 130.704C21.0069 129.924 24.4047 118.442 28.2272 105.187C32.1205 91.9325 36.3678 77.7565 37.7835 73.7163C40.4735 65.565 40.615 65.1397 39.5532 65.1397C37.642 65.1397 29.9969 83.7813 21.4316 109.086C16.5473 123.687 10.4596 140.769 7.91122 146.936C5.36287 153.173 2.67294 160.19 1.89428 162.529C0.266168 167.846 -0.65407 180.25 0.549318 180.958C2.60215 182.234 4.93814 178.832 12.654 163.522C36.0138 117.095 49.8882 91.0111 63.1255 69.0381C69.4963 58.4061 85.4235 33.9523 85.919 33.9523C86.6269 33.9523 82.6628 42.7415 66.8064 76.835C52.3658 107.881 45.1454 124.396 38.7038 141.336C33.6071 154.52 20.4406 193.93 20.4406 195.772C20.4406 197.544 22.989 199.813 24.971 199.813C25.8912 199.813 27.3778 199.175 28.298 198.466C32.3329 195.276 42.2431 178.69 65.8154 135.453C87.4764 95.9018 107.297 61.1704 108.005 61.8792C108.076 61.9501 105.032 68.4002 101.209 76.1971C83.583 111.921 61.2142 164.514 53.0028 189.535C48.5432 203.144 47.6938 209.381 50.1006 211.791C53.7107 215.406 58.949 212.217 65.603 202.223C69.7087 196.056 79.4066 178.548 92.2899 154.095C98.4484 142.399 106.518 127.231 110.199 120.426C116.924 107.881 132.851 80.7334 133.417 80.7334C133.559 80.7334 131.011 86.1203 127.754 92.6413C112.323 123.545 100.997 152.181 87.4056 195.064C81.3886 213.989 81.1763 218.95 86.3438 218.95C89.1045 218.95 91.7236 216.044 95.9001 208.247C97.8821 204.562 104.89 191.661 111.403 179.612C130.728 143.888 135.612 134.957 143.469 121.135C151.61 106.959 160.6 92.1452 160.6 92.9957C160.6 93.2793 157.91 98.9497 154.583 105.542C126.693 161.254 106.164 222.211 112.747 229.512C113.526 230.362 114.942 231 116.004 231C121.03 231 125.489 224.125 140.496 193.575C168.599 136.445 183.464 107.243 193.304 89.9479C198.754 80.4499 206.682 67.2661 207.036 67.2661C207.178 67.2661 205.479 71.0228 203.355 75.5592C181.765 121.277 170.935 152.11 163.361 189.889C159.609 208.602 159.892 213.28 164.847 213.28C166.121 213.28 167.608 212.429 169.094 210.941C171.713 208.318 182.756 186.204 198.117 152.677C214.398 117.166 235.705 74.8504 236.767 75.9844C237.121 76.3388 234.502 83.4269 223.955 110.503C210.434 145.164 201.657 173.232 201.657 181.738C201.657 188.826 207.886 189.96 213.124 183.864C215.885 180.746 224.733 167.278 235.988 149.133C248.235 129.499 257.083 115.819 258.074 115.252C258.428 115.04 257.508 118.442 256.021 122.766C250.288 140.131 245.403 163.309 245.262 173.729C245.191 178.903 245.403 180.179 246.677 181.88C248.659 184.502 250.783 184.786 252.27 182.518C253.19 181.1 253.261 180.462 252.624 179.186C251.633 177.343 252.128 172.524 254.039 165.436C254.747 162.671 258.003 150.125 261.33 137.438C264.657 124.75 268.197 111.566 269.188 108.093C271.453 100.367 271.595 96.1854 269.613 94.2007C265.648 90.2314 261.401 93.9881 247.527 113.835C234.077 133.043 227.99 142.47 220.415 155.867C213.62 167.916 210.859 172.24 210.859 170.964C210.859 168.767 226.715 123.616 244.483 75.4174C255.243 46.2855 255.455 45.2932 252.553 42.3871C249.013 38.8431 245.191 42.458 237.971 56.067C235.21 61.2413 230.184 70.5975 226.786 76.835C217.442 93.8463 191.817 145.164 181.482 167.208C176.527 177.911 172.28 186.841 172.138 187.054C170.722 188.684 182.827 151.827 190.685 130.562C201.798 100.651 211.779 76.6932 225.37 47.774C236.484 24.0291 237.192 21.2647 233.228 18.6422C231.67 17.6498 231.317 17.6498 229.405 18.6422C225.441 20.6977 221.265 26.5808 203.143 55.7835C182.473 89.0973 172.704 106.817 146.938 157.639C136.461 178.265 128.108 194.709 128.25 194.142C129.029 191.52 140.638 162.955 146.725 148.637C160.883 115.252 179.429 74.9921 195.923 41.8909C200.099 33.3853 203.78 25.6593 203.993 24.5961C204.417 23.1076 204.134 22.257 203.072 21.1938C200.312 18.4295 197.48 19.918 192.808 26.439C185.163 37.2128 150.265 92.7831 136.32 116.315C127.33 131.626 110.907 160.474 106.943 168.271C104.253 173.374 105.315 170.185 110.412 157.497C121.454 130.066 137.735 95.193 160.387 50.4675C178.014 15.6652 179.429 11.6959 176.173 8.43536C173.837 6.09631 171.926 6.66335 167.82 11.0579C163.785 15.3108 144.036 44.6553 130.02 67.2661C113.951 93.1375 93.4933 128.719 80.9639 152.535C78.3448 157.497 76.1504 161.537 76.0088 161.537C75.7256 161.537 79.8313 151.543 86.273 136.729C93.5641 120.001 104.324 97.1777 122.021 60.8869C143.469 16.941 145.805 11.8376 146.23 7.30127C146.584 3.96989 146.442 3.40285 144.814 1.7726C142.62 -0.424698 139.859 -0.566452 136.886 1.27644Z" fill="white"/>
</svg>
