<svg width="271" height="232" viewBox="0 0 271 232" fill="none" xmlns="http://www.w3.org/2000/svg">
<path opacity="0.2" d="M136.886 1.77351C133.205 4.04169 134.408 2.41144 110.695 37.639C98.3068 56.1388 89.5292 70.882 67.0188 111C57.2501 128.366 48.968 142.826 48.614 143.251C46.9151 145.094 56.8254 121.207 75.3009 79.4585C86.4145 54.1542 96.7495 28.7081 98.0237 23.1794C99.3687 17.6507 97.8821 14.8155 94.1304 15.8078C92.7146 16.1622 86.8393 23.3212 75.7964 38.2061C65.3199 52.2404 55.0557 69.1099 41.3229 94.6978C26.3867 122.483 21.644 131.272 20.9361 131.91C20.4406 132.406 20.3698 132.194 20.7238 131.201C21.0069 130.422 24.4047 118.939 28.2272 105.684C32.1205 92.4296 36.3678 78.2535 37.7835 74.2133C40.4735 66.0621 40.615 65.6368 39.5532 65.6368C37.642 65.6368 29.9969 84.2784 21.4316 109.583C16.5473 124.184 10.4596 141.266 7.91122 147.433C5.36287 153.67 2.67294 160.687 1.89428 163.027C0.266168 168.343 -0.65407 180.747 0.549318 181.455C2.60215 182.731 4.93814 179.329 12.654 164.019C36.0138 117.592 49.8882 91.5082 63.1255 69.5352C69.4963 58.9032 85.4235 34.4494 85.919 34.4494C86.6269 34.4494 82.6628 43.2386 66.8064 77.3321C52.3658 108.378 45.1454 124.893 38.7038 141.833C33.6071 155.017 20.4406 194.427 20.4406 196.269C20.4406 198.041 22.989 200.31 24.971 200.31C25.8912 200.31 27.3778 199.672 28.298 198.963C32.3329 195.773 42.2431 179.187 65.8154 135.95C87.4764 96.3989 107.297 61.6675 108.005 62.3763C108.076 62.4472 105.032 68.8973 101.209 76.6942C83.583 112.418 61.2142 165.011 53.0028 190.032C48.5432 203.641 47.6938 209.879 50.1006 212.288C53.7107 215.903 58.949 212.714 65.603 202.72C69.7087 196.553 79.4066 179.046 92.2899 154.592C98.4484 142.896 106.518 127.728 110.199 120.924C116.924 108.378 132.851 81.2305 133.417 81.2305C133.559 81.2305 131.011 86.6174 127.754 93.1384C112.323 124.042 100.997 152.678 87.4056 195.561C81.3886 214.486 81.1763 219.447 86.3438 219.447C89.1045 219.447 91.7236 216.541 95.9001 208.744C97.8821 205.059 104.89 192.158 111.403 180.109C130.728 144.385 135.612 135.454 143.469 121.632C151.61 107.456 160.6 92.6423 160.6 93.4928C160.6 93.7763 157.91 99.4468 154.583 106.039C126.693 161.751 106.164 222.708 112.747 230.009C113.526 230.859 114.942 231.497 116.004 231.497C121.03 231.497 125.489 224.622 140.496 194.072C168.599 136.943 183.464 107.74 193.304 90.445C198.754 80.947 206.682 67.7632 207.036 67.7632C207.178 67.7632 205.479 71.5199 203.355 76.0562C181.765 121.774 170.935 152.607 163.361 190.386C159.609 209.099 159.892 213.777 164.847 213.777C166.121 213.777 167.608 212.926 169.094 211.438C171.713 208.815 182.756 186.701 198.117 153.174C214.398 117.663 235.705 75.3474 236.767 76.4815C237.121 76.8359 234.502 83.924 223.955 111C210.434 145.661 201.657 173.729 201.657 182.235C201.657 189.323 207.886 190.457 213.124 184.362C215.885 181.243 224.733 167.776 235.988 149.63C248.235 129.996 257.083 116.316 258.074 115.749C258.428 115.537 257.508 118.939 256.021 123.263C250.288 140.628 245.403 163.806 245.262 174.226C245.191 179.4 245.403 180.676 246.677 182.377C248.659 184.999 250.783 185.283 252.27 183.015C253.19 181.597 253.261 180.959 252.624 179.683C251.633 177.841 252.128 173.021 254.039 165.933C254.747 163.168 258.003 150.622 261.33 137.935C264.657 125.247 268.197 112.063 269.188 108.59C271.453 100.864 271.595 96.6824 269.613 94.6978C265.648 90.7285 261.401 94.4851 247.527 114.332C234.077 133.54 227.99 142.967 220.415 156.364C213.62 168.413 210.859 172.737 210.859 171.461C210.859 169.264 226.715 124.113 244.483 75.9145C255.243 46.7826 255.455 45.7903 252.553 42.8842C249.013 39.3401 245.191 42.955 237.971 56.5641C235.21 61.7384 230.184 71.0946 226.786 77.3321C217.442 94.3434 191.817 145.661 181.482 167.705C176.527 178.408 172.28 187.339 172.138 187.551C170.722 189.181 182.827 152.324 190.685 131.059C201.798 101.148 211.779 77.1903 225.37 48.2711C236.484 24.5261 237.192 21.7618 233.228 19.1392C231.67 18.1469 231.317 18.1469 229.405 19.1392C225.441 21.1947 221.265 27.0778 203.143 56.2806C182.473 89.5944 172.704 107.315 146.938 158.136C136.461 178.762 128.108 195.206 128.25 194.639C129.029 192.017 140.638 163.452 146.725 149.134C160.883 115.749 179.429 75.4892 195.923 42.388C200.099 33.8824 203.78 26.1564 203.993 25.0932C204.417 23.6047 204.134 22.7541 203.072 21.6909C200.312 18.9266 197.48 20.4151 192.808 26.9361C185.163 37.7099 150.265 93.2802 136.32 116.812C127.33 132.123 110.907 160.971 106.943 168.768C104.253 173.871 105.315 170.682 110.412 157.994C121.454 130.563 137.735 95.6901 160.387 50.9645C178.014 16.1622 179.429 12.1929 176.173 8.93243C173.837 6.59338 171.926 7.16042 167.82 11.555C163.785 15.8078 144.036 45.1523 130.02 67.7632C113.951 93.6346 93.4933 129.217 80.9639 153.032C78.3448 157.994 76.1504 162.034 76.0088 162.034C75.7256 162.034 79.8313 152.04 86.273 137.226C93.5641 120.498 104.324 97.6748 122.021 61.384C143.469 17.4381 145.805 12.3347 146.23 7.79834C146.584 4.46696 146.442 3.89992 144.814 2.26967C142.62 0.0723724 139.859 -0.0693817 136.886 1.77351Z" fill="white"/>
</svg>
