<svg width="53" height="55" viewBox="0 0 53 55" fill="none" xmlns="http://www.w3.org/2000/svg">
<path d="M25.2557 54.802C38.8719 54.802 49.9098 43.66 49.9098 29.9156C49.9098 16.1713 38.8719 5.0293 25.2557 5.0293C11.6396 5.0293 0.601562 16.1713 0.601562 29.9156C0.601562 43.66 11.6396 54.802 25.2557 54.802Z" fill="#C562BC"/>
<path d="M26.816 3.22166C29.9897 3.22166 32.9726 3.83498 35.7713 5.057C38.57 6.28135 41.0119 7.93781 43.0994 10.0263C45.1869 12.1149 46.8347 14.5753 48.0477 17.4003C49.2584 20.2276 49.8635 23.2455 49.8635 26.4539C49.8635 29.6622 49.2584 32.6801 48.0477 35.5074C46.8371 38.3349 45.1869 40.7929 43.0994 42.8814C41.0119 44.97 38.57 46.6265 35.7713 47.8507C32.9726 49.0751 29.9897 49.6862 26.816 49.6862C23.6422 49.6862 20.6571 49.0751 17.8607 47.8507C15.062 46.6265 12.6316 44.97 10.5647 42.8814C8.498 40.7929 6.85931 38.3349 5.64867 35.5074C4.43802 32.6801 3.83269 29.6622 3.83269 26.4539C3.83269 23.2455 4.43802 20.23 5.64867 17.4003C6.85931 14.5729 8.498 12.1149 10.5647 10.0263C12.6316 7.93781 15.0642 6.28135 17.8607 5.057C20.6571 3.83266 23.6445 3.22166 26.816 3.22166ZM26.816 0.898438C23.3406 0.898438 20.0195 1.58146 16.9447 2.92661C13.8906 4.26247 11.1954 6.10014 8.93531 8.38618C6.6729 10.6722 4.85693 13.3951 3.53584 16.4802C2.20563 19.5865 1.53125 22.9435 1.53125 26.4539C1.53125 29.9643 2.20563 33.3236 3.53584 36.4274C4.85693 39.5127 6.6729 42.2355 8.93531 44.5216C11.1999 46.8099 13.8928 48.6476 16.9447 49.9811C20.0173 51.3263 23.3384 52.0094 26.816 52.0094C30.2936 52.0094 33.6124 51.3263 36.6873 49.9811C39.7346 48.6476 42.4389 46.8147 44.7197 44.5309C47.0074 42.2402 48.8371 39.5151 50.1582 36.4274C51.4885 33.3214 52.1629 29.9643 52.1629 26.4539C52.1629 22.9435 51.4885 19.5865 50.1582 16.4802C48.8349 13.3927 47.0051 10.6652 44.7197 8.37695C42.4389 6.09548 39.7368 4.26013 36.6873 2.92661C33.6101 1.58146 30.2913 0.898438 26.816 0.898438Z" fill="white"/>
<path fill-rule="evenodd" clip-rule="evenodd" d="M26.9389 5.9541C28.6075 5.9541 30.2278 6.15855 31.779 6.54187C28.9412 8.81167 26.368 11.2395 24.1125 13.7299C22.1885 15.6815 20.3519 17.7166 18.6119 19.8074L18.5957 19.4729C18.5842 15.4352 18.8375 11.3881 19.4013 7.41308C21.7328 6.47218 24.2783 5.9541 26.9411 5.9541H26.9389ZM34.9574 7.61288C31.779 10.0197 28.7686 12.696 25.9515 15.556L25.7191 15.8139C28.4211 15.5769 31.1461 15.4491 33.878 15.4422C37.2153 15.2934 40.7321 15.412 44.3224 15.8325C42.1359 12.1989 38.8609 9.30657 34.9552 7.61288H34.9574ZM45.8231 18.862C46.7551 21.2154 47.2684 23.7825 47.2684 26.4729C47.2684 28.1572 47.0658 29.7927 46.6861 31.3585C44.4399 28.494 42.0348 25.8966 39.5674 23.6199C37.6342 21.6777 35.618 19.826 33.5467 18.0673L33.878 18.0511C37.8782 18.0395 41.8874 18.2951 45.8253 18.8642L45.8231 18.862ZM45.6228 34.5669C43.2383 31.3585 40.587 28.3198 37.7538 25.4761L37.4983 25.2415C37.7331 27.969 37.8596 30.722 37.8666 33.4797C38.0139 36.8483 37.8966 40.3982 37.4799 44.0224C41.0796 41.8153 43.945 38.5094 45.6228 34.5669ZM34.4787 45.5349C32.1473 46.4757 29.604 46.9938 26.9389 46.9938C25.2703 46.9938 23.65 46.7894 22.0987 46.4061C24.9365 44.1385 27.5096 41.7085 29.7651 39.2203C31.6893 37.2665 33.5259 35.2336 35.2659 33.1404L35.282 33.4749C35.2934 37.5128 35.038 41.5598 34.4764 45.5349H34.4787ZM18.9202 45.3327C22.0987 42.9259 25.1091 40.2495 27.9262 37.3896L28.1587 37.1317C25.4567 37.3687 22.7317 37.4964 19.9997 37.5034C16.6625 37.6522 13.1457 37.5336 9.55531 37.1131C11.7418 40.7467 15.0169 43.639 18.9226 45.3327H18.9202ZM8.05474 34.0836C7.12253 31.7302 6.60938 29.1608 6.60938 26.4729C6.60938 24.7884 6.81184 23.1529 7.19159 21.5871C9.43795 24.4516 11.8454 27.049 14.3126 29.3258C16.246 31.2679 18.2621 33.1218 20.3357 34.8783L20.0043 34.8945C16.002 34.9061 11.9972 34.6505 8.05695 34.0814L8.05474 34.0836ZM8.25263 18.3787C10.6371 21.5871 13.2884 24.6258 16.1216 27.4695L16.3772 27.7017C16.1423 24.9766 16.0157 22.2236 16.0089 19.4659C15.8615 16.0973 15.9789 12.5474 16.3956 8.92324C12.7959 11.1303 9.93049 14.4361 8.25263 18.3787Z" fill="white"/>
</svg>
