<svg width="121" height="128" viewBox="0 0 121 128" fill="none" xmlns="http://www.w3.org/2000/svg">
<g clip-path="url(#clip0_161_6384)">
<path d="M4.02279 19.8227C3.96192 19.6 3.94577 19.3675 3.97526 19.1385C4.00475 18.9096 4.0793 18.6887 4.19464 18.4884C4.30999 18.2882 4.46386 18.1126 4.64744 17.9717C4.83102 17.8308 5.04071 17.7274 5.2645 17.6673L13.5426 15.4648C13.9956 15.3492 14.476 15.4153 14.8807 15.6487C15.2854 15.8822 15.5819 16.2644 15.7067 16.7133" stroke="white" stroke-width="1.5" stroke-miterlimit="10"/>
<path d="M53.7334 6.63096C53.6727 6.40899 53.6567 6.17725 53.6863 5.94909C53.716 5.72093 53.7907 5.50087 53.9061 5.3016C54.0215 5.10233 54.1754 4.92778 54.3589 4.78803C54.5424 4.64828 54.7518 4.54608 54.9751 4.48733L63.2532 2.28481C63.4792 2.22247 63.7153 2.20537 63.9479 2.2345C64.1806 2.26363 64.4051 2.3384 64.6086 2.4545C64.812 2.5706 64.9903 2.72572 65.1332 2.91089C65.2761 3.09607 65.3807 3.30761 65.441 3.5333L65.6657 4.3931" stroke="white" stroke-width="1.5" stroke-miterlimit="10"/>
<path d="M10.0884 54.4382L5.5 37.2656" stroke="white" stroke-width="1.5" stroke-miterlimit="10"/>
<path d="M71.7188 19.6934L76.1179 36.1828" stroke="white" stroke-width="1.5" stroke-miterlimit="10"/>
<path d="M20.6946 33.2376L3.72458 37.6898L1.18203 28.067C0.675233 26.1835 0.938192 24.1768 1.91336 22.4859C2.88853 20.7951 4.4965 19.5578 6.38538 19.0449L61.7537 4.35752C62.6933 4.10841 63.6729 4.04607 64.6366 4.17407C65.6004 4.30206 66.5294 4.61789 67.3706 5.10351C68.2118 5.58912 68.9487 6.23502 69.5392 7.00431C70.1297 7.7736 70.5623 8.65122 70.8123 9.58703L73.4021 19.2451L64.6865 21.6008" stroke="white" stroke-width="1.5" stroke-miterlimit="10"/>
<path d="M70.0524 39.6692L78.2713 37.4902L80.8611 47.113C81.1113 48.0488 81.1738 49.0245 81.0453 49.9843C80.9168 50.9442 80.5997 51.8695 80.1121 52.7073C79.6245 53.5451 78.976 54.279 78.2036 54.8671C77.4312 55.4553 76.5501 55.8861 75.6105 56.1351L20.2422 70.8696C19.3026 71.1187 18.323 71.181 17.3592 71.053C16.3955 70.9251 15.4665 70.6092 14.6253 70.1236C13.7841 69.638 13.0472 68.9921 12.4567 68.2228C11.8661 67.4535 11.4336 66.5759 11.1836 65.6401L8.59375 55.982L25.5638 51.4709" stroke="white" stroke-width="1.5" stroke-miterlimit="10"/>
<path d="M51.5147 58.3891C63.7581 54.9914 70.9177 42.3517 67.5062 30.1577C64.0947 17.9637 51.404 10.8329 39.1607 14.2306C26.9174 17.6284 19.7577 30.268 23.1692 42.462C26.5807 54.6561 39.2714 61.7869 51.5147 58.3891Z" stroke="white" stroke-width="1.5" stroke-miterlimit="10"/>
<path d="M61.8412 31.9302C62.712 35.1806 62.5955 38.6151 61.5064 41.7995C60.4173 44.9838 58.4045 47.775 55.7225 49.8199C53.0406 51.8649 49.8099 53.0717 46.4393 53.2879C43.0686 53.504 39.7093 52.7198 36.7862 51.0343C33.863 49.3487 31.5075 46.8377 30.0173 43.8187C28.5272 40.7998 27.9694 37.4085 28.4146 34.0738C28.8598 30.739 30.2879 27.6107 32.5183 25.0844C34.7487 22.5582 37.6812 20.7474 40.945 19.8812C45.3202 18.7199 49.9794 19.3369 53.898 21.5964C57.8166 23.856 60.6737 27.573 61.8412 31.9302Z" stroke="white" stroke-width="1.5" stroke-miterlimit="10" stroke-linecap="round" stroke-dasharray="1 4"/>
<path d="M58.9515 32.6962C59.6697 35.3797 59.5726 38.215 58.6726 40.8436C57.7726 43.4721 56.1101 45.7758 53.8954 47.4631C51.6807 49.1505 49.0133 50.1458 46.2306 50.323C43.4479 50.5003 40.6749 49.8516 38.2623 48.4591C35.8498 47.0665 33.9062 44.9926 32.6773 42.4997C31.4483 40.0068 30.9894 37.2069 31.3584 34.4541C31.7274 31.7014 32.9078 29.1195 34.7503 27.035C36.5929 24.9505 39.0147 23.4571 41.7095 22.7437C45.321 21.7875 49.1659 22.2988 52.3991 24.1651C55.6323 26.0314 57.9891 29.0999 58.9515 32.6962Z" stroke="white" stroke-width="1.5" stroke-miterlimit="10"/>
<path d="M51.3375 7.12624C51.3375 7.12624 42.8466 -0.282236 37.8443 1.0487L26.5862 4.02858C21.5957 5.35951 17.9888 15.9716 17.9297 15.9834" stroke="white" stroke-width="1.5" stroke-miterlimit="10"/>
<path d="M38.3134 2.90023L27.1029 5.87319C26.6232 6.0004 26.3379 6.49079 26.4656 6.96852L27.4271 10.5651C27.5549 11.0428 28.0472 11.327 28.5269 11.1998L39.7374 8.22683C40.2171 8.09963 40.5024 7.60923 40.3747 7.13151L39.4131 3.53491C39.2854 3.05719 38.793 2.77303 38.3134 2.90023Z" stroke="white" stroke-width="1.5" stroke-miterlimit="10"/>
<path d="M9.52316 25.2406C9.13116 25.3453 8.71348 25.2914 8.36124 25.0906C8.00899 24.8898 7.75076 24.5584 7.64286 24.1687C7.54136 23.7769 7.59853 23.3609 7.80204 23.0106C8.00555 22.6603 8.33911 22.4037 8.73083 22.296C8.92805 22.2373 9.13516 22.219 9.33968 22.2421C9.54421 22.2653 9.74191 22.3294 9.9209 22.4306C10.0999 22.5318 10.2565 22.6681 10.3812 22.8312C10.5059 22.9943 10.5962 23.1808 10.6466 23.3796C10.6978 23.5753 10.7092 23.7793 10.6802 23.9794C10.6512 24.1796 10.5823 24.372 10.4777 24.5453C10.373 24.7186 10.2347 24.8694 10.0708 24.9888C9.9069 25.1082 9.72071 25.1938 9.52316 25.2406Z" stroke="white" stroke-width="1.5" stroke-miterlimit="10"/>
<path d="M17.4441 23.1443C17.25 23.1958 17.0475 23.2086 16.8484 23.182C16.6493 23.1553 16.4574 23.0898 16.2838 22.9891C16.1102 22.8884 15.9583 22.7546 15.8367 22.5952C15.7152 22.4359 15.6265 22.2543 15.5756 22.0607C15.4708 21.6718 15.5252 21.2573 15.727 20.9084C15.9288 20.5595 16.2614 20.3046 16.6518 20.1997C17.0438 20.095 17.4614 20.1489 17.8137 20.3497C18.1659 20.5505 18.4242 20.8819 18.5321 21.2716C18.6336 21.6634 18.5764 22.0794 18.3729 22.4297C18.1694 22.78 17.8358 23.0366 17.4441 23.1443Z" stroke="white" stroke-width="1.5" stroke-miterlimit="10"/>
</g>
<g clip-path="url(#clip1_161_6384)">
<path d="M36 90.4097C41.67 92.5597 47.62 96.8297 52.61 104.87C69.24 131.72 102.13 134.07 116.84 110.29C119.61 105.81 119.6 98.0797 117.64 93.1897C116.18 89.5497 112.77 84.7197 107.17 86.3097C91.44 90.7897 101.44 108.92 109.55 100.41" stroke="white" stroke-width="2" stroke-miterlimit="10" stroke-linecap="round" stroke-dasharray="1 4"/>
</g>
<defs>
<clipPath id="clip0_161_6384">
<rect width="82" height="72" fill="white"/>
</clipPath>
<clipPath id="clip1_161_6384">
<rect width="85.03" height="42.68" fill="white" transform="translate(35 85)"/>
</clipPath>
</defs>
</svg>
