<svg width="95" height="52" viewBox="0 0 95 52" fill="none" xmlns="http://www.w3.org/2000/svg">
<path d="M3.25346 51.7697C1.45612 51.7697 -0.000902176 50.2767 -0.000902176 48.4351C-0.000902176 46.5935 1.45612 45.1006 3.25346 45.1006C5.05079 45.1006 6.50781 46.5935 6.50781 48.4351C6.50781 50.2767 5.05079 51.7697 3.25346 51.7697Z" fill="white"/>
<path d="M3.25346 29.4689C1.45612 29.4689 -0.000902176 27.976 -0.000902176 26.1343C-0.000902176 24.2927 1.45612 22.7998 3.25346 22.7998C5.05079 22.7998 6.50781 24.2927 6.50781 26.1343C6.50781 27.976 5.05079 29.4689 3.25346 29.4689Z" fill="white"/>
<path d="M3.25346 7.16616C1.45612 7.16616 -0.000902176 5.67323 -0.000902176 3.83161C-0.000902176 1.99 1.45612 0.49707 3.25346 0.49707C5.05079 0.49707 6.50781 1.99 6.50781 3.83161C6.50781 5.67323 5.05079 7.16616 3.25346 7.16616Z" fill="white"/>
<path d="M20.8081 51.7699C19.0108 51.7699 17.5538 50.277 17.5538 48.4354C17.5538 46.5937 19.0108 45.1008 20.8081 45.1008C22.6055 45.1008 24.0625 46.5937 24.0625 48.4354C24.0625 50.277 22.6055 51.7699 20.8081 51.7699Z" fill="white"/>
<path d="M20.8081 29.4689C19.0108 29.4689 17.5538 27.976 17.5538 26.1343C17.5538 24.2927 19.0108 22.7998 20.8081 22.7998C22.6055 22.7998 24.0625 24.2927 24.0625 26.1343C24.0625 27.976 22.6055 29.4689 20.8081 29.4689Z" fill="white"/>
<path d="M20.8081 7.16616C19.0108 7.16616 17.5538 5.67323 17.5538 3.83161C17.5538 1.99 19.0108 0.49707 20.8081 0.49707C22.6055 0.49707 24.0625 1.99 24.0625 3.83161C24.0625 5.67323 22.6055 7.16616 20.8081 7.16616Z" fill="white"/>
<path d="M38.3706 51.7699C36.5733 51.7699 35.1163 50.277 35.1163 48.4354C35.1163 46.5937 36.5733 45.1008 38.3706 45.1008C40.168 45.1008 41.625 46.5937 41.625 48.4354C41.625 50.277 40.168 51.7699 38.3706 51.7699Z" fill="white"/>
<path d="M38.3706 29.4689C36.5733 29.4689 35.1163 27.976 35.1163 26.1343C35.1163 24.2927 36.5733 22.7998 38.3706 22.7998C40.168 22.7998 41.625 24.2927 41.625 26.1343C41.625 27.976 40.168 29.4689 38.3706 29.4689Z" fill="white"/>
<path d="M38.3706 7.16616C36.5733 7.16616 35.1163 5.67323 35.1163 3.83161C35.1163 1.99 36.5733 0.49707 38.3706 0.49707C40.168 0.49707 41.625 1.99 41.625 3.83161C41.625 5.67323 40.168 7.16616 38.3706 7.16616Z" fill="white"/>
<path d="M55.9331 51.7699C54.1358 51.7699 52.6788 50.277 52.6788 48.4354C52.6788 46.5937 54.1358 45.1008 55.9331 45.1008C57.7305 45.1008 59.1875 46.5937 59.1875 48.4354C59.1875 50.277 57.7305 51.7699 55.9331 51.7699Z" fill="white"/>
<path d="M55.9331 29.4689C54.1358 29.4689 52.6788 27.976 52.6788 26.1343C52.6788 24.2927 54.1358 22.7998 55.9331 22.7998C57.7305 22.7998 59.1875 24.2927 59.1875 26.1343C59.1875 27.976 57.7305 29.4689 55.9331 29.4689Z" fill="white"/>
<path d="M55.9331 7.16616C54.1358 7.16616 52.6788 5.67323 52.6788 3.83161C52.6788 1.99 54.1358 0.49707 55.9331 0.49707C57.7305 0.49707 59.1875 1.99 59.1875 3.83161C59.1875 5.67323 57.7305 7.16616 55.9331 7.16616Z" fill="white"/>
<path d="M73.4878 51.7697C71.6905 51.7697 70.2334 50.2767 70.2334 48.4351C70.2334 46.5935 71.6905 45.1006 73.4878 45.1006C75.2852 45.1006 76.7422 46.5935 76.7422 48.4351C76.7422 50.2767 75.2852 51.7697 73.4878 51.7697Z" fill="white"/>
<path d="M73.4878 29.4689C71.6905 29.4689 70.2334 27.976 70.2334 26.1343C70.2334 24.2927 71.6905 22.7998 73.4878 22.7998C75.2852 22.7998 76.7422 24.2927 76.7422 26.1343C76.7422 27.976 75.2852 29.4689 73.4878 29.4689Z" fill="white"/>
<path d="M73.4878 7.16616C71.6905 7.16616 70.2334 5.67323 70.2334 3.83161C70.2334 1.99 71.6905 0.49707 73.4878 0.49707C75.2852 0.49707 76.7422 1.99 76.7422 3.83161C76.7422 5.67323 75.2852 7.16616 73.4878 7.16616Z" fill="white"/>
<path d="M91.0503 51.7699C89.253 51.7699 87.796 50.277 87.796 48.4354C87.796 46.5937 89.253 45.1008 91.0503 45.1008C92.8477 45.1008 94.3047 46.5937 94.3047 48.4354C94.3047 50.277 92.8477 51.7699 91.0503 51.7699Z" fill="white"/>
<path d="M91.0503 29.4689C89.253 29.4689 87.796 27.976 87.796 26.1343C87.796 24.2927 89.253 22.7998 91.0503 22.7998C92.8477 22.7998 94.3047 24.2927 94.3047 26.1343C94.3047 27.976 92.8477 29.4689 91.0503 29.4689Z" fill="white"/>
<path d="M91.0503 7.16616C89.253 7.16616 87.796 5.67323 87.796 3.83161C87.796 1.99 89.253 0.49707 91.0503 0.49707C92.8477 0.49707 94.3047 1.99 94.3047 3.83161C94.3047 5.67323 92.8477 7.16616 91.0503 7.16616Z" fill="white"/>
</svg>
