<svg width="230" height="110" viewBox="0 0 230 110" fill="none" xmlns="http://www.w3.org/2000/svg">
<g opacity="0.5">
<path d="M105 110C107.761 110 110 107.761 110 105C110 102.239 107.761 100 105 100C102.239 100 100 102.239 100 105C100 107.761 102.239 110 105 110Z" fill="white"/>
<path d="M105 90C107.761 90 110 87.7614 110 85C110 82.2386 107.761 80 105 80C102.239 80 100 82.2386 100 85C100 87.7614 102.239 90 105 90Z" fill="white"/>
<path d="M105 70C107.761 70 110 67.7614 110 65C110 62.2386 107.761 60 105 60C102.239 60 100 62.2386 100 65C100 67.7614 102.239 70 105 70Z" fill="white"/>
<path d="M85 110C87.7614 110 90 107.761 90 105C90 102.239 87.7614 100 85 100C82.2386 100 80 102.239 80 105C80 107.761 82.2386 110 85 110Z" fill="white"/>
<path d="M85 90C87.7614 90 90 87.7614 90 85C90 82.2386 87.7614 80 85 80C82.2386 80 80 82.2386 80 85C80 87.7614 82.2386 90 85 90Z" fill="white"/>
<path d="M85 70C87.7614 70 90 67.7614 90 65C90 62.2386 87.7614 60 85 60C82.2386 60 80 62.2386 80 65C80 67.7614 82.2386 70 85 70Z" fill="white"/>
<path d="M65 110C67.7614 110 70 107.761 70 105C70 102.239 67.7614 100 65 100C62.2386 100 60 102.239 60 105C60 107.761 62.2386 110 65 110Z" fill="white"/>
<path d="M65 90C67.7614 90 70 87.7614 70 85C70 82.2386 67.7614 80 65 80C62.2386 80 60 82.2386 60 85C60 87.7614 62.2386 90 65 90Z" fill="white"/>
<path d="M65 70C67.7614 70 70 67.7614 70 65C70 62.2386 67.7614 60 65 60C62.2386 60 60 62.2386 60 65C60 67.7614 62.2386 70 65 70Z" fill="white"/>
<path d="M45 110C47.7614 110 50 107.761 50 105C50 102.239 47.7614 100 45 100C42.2386 100 40 102.239 40 105C40 107.761 42.2386 110 45 110Z" fill="white"/>
<path d="M45 90C47.7614 90 50 87.7614 50 85C50 82.2386 47.7614 80 45 80C42.2386 80 40 82.2386 40 85C40 87.7614 42.2386 90 45 90Z" fill="white"/>
<path d="M45 70C47.7614 70 50 67.7614 50 65C50 62.2386 47.7614 60 45 60C42.2386 60 40 62.2386 40 65C40 67.7614 42.2386 70 45 70Z" fill="white"/>
<path d="M25 110C27.7614 110 30 107.761 30 105C30 102.239 27.7614 100 25 100C22.2386 100 20 102.239 20 105C20 107.761 22.2386 110 25 110Z" fill="white"/>
<path d="M25 90C27.7614 90 30 87.7614 30 85C30 82.2386 27.7614 80 25 80C22.2386 80 20 82.2386 20 85C20 87.7614 22.2386 90 25 90Z" fill="white"/>
<path d="M25 70C27.7614 70 30 67.7614 30 65C30 62.2386 27.7614 60 25 60C22.2386 60 20 62.2386 20 65C20 67.7614 22.2386 70 25 70Z" fill="white"/>
<path d="M5.00001 110C7.76143 110 10 107.761 10 105C10 102.239 7.76143 100 5.00001 100C2.23858 100 0 102.239 0 105C0 107.761 2.23858 110 5.00001 110Z" fill="white"/>
<path d="M5.00001 90C7.76143 90 10 87.7614 10 85C10 82.2386 7.76143 80 5.00001 80C2.23858 80 0 82.2386 0 85C0 87.7614 2.23858 90 5.00001 90Z" fill="white"/>
<path d="M5.00001 70C7.76143 70 10 67.7614 10 65C10 62.2386 7.76143 60 5.00001 60C2.23858 60 0 62.2386 0 65C0 67.7614 2.23858 70 5.00001 70Z" fill="white"/>
<path d="M225 110C227.761 110 230 107.761 230 105C230 102.239 227.761 100 225 100C222.239 100 220 102.239 220 105C220 107.761 222.239 110 225 110Z" fill="white"/>
<path d="M225 90C227.761 90 230 87.7614 230 85C230 82.2386 227.761 80 225 80C222.239 80 220 82.2386 220 85C220 87.7614 222.239 90 225 90Z" fill="white"/>
<path d="M225 70C227.761 70 230 67.7614 230 65C230 62.2386 227.761 60 225 60C222.239 60 220 62.2386 220 65C220 67.7614 222.239 70 225 70Z" fill="white"/>
<path d="M205 110C207.761 110 210 107.761 210 105C210 102.239 207.761 100 205 100C202.239 100 200 102.239 200 105C200 107.761 202.239 110 205 110Z" fill="white"/>
<path d="M205 90C207.761 90 210 87.7614 210 85C210 82.2386 207.761 80 205 80C202.239 80 200 82.2386 200 85C200 87.7614 202.239 90 205 90Z" fill="white"/>
<path d="M205 70C207.761 70 210 67.7614 210 65C210 62.2386 207.761 60 205 60C202.239 60 200 62.2386 200 65C200 67.7614 202.239 70 205 70Z" fill="white"/>
<path d="M185 110C187.761 110 190 107.761 190 105C190 102.239 187.761 100 185 100C182.239 100 180 102.239 180 105C180 107.761 182.239 110 185 110Z" fill="white"/>
<path d="M185 90C187.761 90 190 87.7614 190 85C190 82.2386 187.761 80 185 80C182.239 80 180 82.2386 180 85C180 87.7614 182.239 90 185 90Z" fill="white"/>
<path d="M185 70C187.761 70 190 67.7614 190 65C190 62.2386 187.761 60 185 60C182.239 60 180 62.2386 180 65C180 67.7614 182.239 70 185 70Z" fill="white"/>
<path d="M165 110C167.761 110 170 107.761 170 105C170 102.239 167.761 100 165 100C162.239 100 160 102.239 160 105C160 107.761 162.239 110 165 110Z" fill="white"/>
<path d="M165 90C167.761 90 170 87.7614 170 85C170 82.2386 167.761 80 165 80C162.239 80 160 82.2386 160 85C160 87.7614 162.239 90 165 90Z" fill="white"/>
<path d="M165 70C167.761 70 170 67.7614 170 65C170 62.2386 167.761 60 165 60C162.239 60 160 62.2386 160 65C160 67.7614 162.239 70 165 70Z" fill="white"/>
<path d="M145 110C147.761 110 150 107.761 150 105C150 102.239 147.761 100 145 100C142.239 100 140 102.239 140 105C140 107.761 142.239 110 145 110Z" fill="white"/>
<path d="M145 90C147.761 90 150 87.7614 150 85C150 82.2386 147.761 80 145 80C142.239 80 140 82.2386 140 85C140 87.7614 142.239 90 145 90Z" fill="white"/>
<path d="M145 70C147.761 70 150 67.7614 150 65C150 62.2386 147.761 60 145 60C142.239 60 140 62.2386 140 65C140 67.7614 142.239 70 145 70Z" fill="white"/>
<path d="M125 110C127.761 110 130 107.761 130 105C130 102.239 127.761 100 125 100C122.239 100 120 102.239 120 105C120 107.761 122.239 110 125 110Z" fill="white"/>
<path d="M125 90C127.761 90 130 87.7614 130 85C130 82.2386 127.761 80 125 80C122.239 80 120 82.2386 120 85C120 87.7614 122.239 90 125 90Z" fill="white"/>
<path d="M125 70C127.761 70 130 67.7614 130 65C130 62.2386 127.761 60 125 60C122.239 60 120 62.2386 120 65C120 67.7614 122.239 70 125 70Z" fill="white"/>
<path d="M105 50C107.761 50 110 47.7614 110 45C110 42.2386 107.761 40 105 40C102.239 40 100 42.2386 100 45C100 47.7614 102.239 50 105 50Z" fill="white"/>
<path d="M105 30C107.761 30 110 27.7614 110 25C110 22.2386 107.761 20 105 20C102.239 20 100 22.2386 100 25C100 27.7614 102.239 30 105 30Z" fill="white"/>
<path d="M105 10C107.761 10 110 7.76142 110 5C110 2.23858 107.761 0 105 0C102.239 0 100 2.23858 100 5C100 7.76142 102.239 10 105 10Z" fill="white"/>
<path d="M85 50C87.7614 50 90 47.7614 90 45C90 42.2386 87.7614 40 85 40C82.2386 40 80 42.2386 80 45C80 47.7614 82.2386 50 85 50Z" fill="white"/>
<path d="M85 30C87.7614 30 90 27.7614 90 25C90 22.2386 87.7614 20 85 20C82.2386 20 80 22.2386 80 25C80 27.7614 82.2386 30 85 30Z" fill="white"/>
<path d="M85 10C87.7614 10 90 7.76142 90 5C90 2.23858 87.7614 0 85 0C82.2386 0 80 2.23858 80 5C80 7.76142 82.2386 10 85 10Z" fill="white"/>
<path d="M65 50C67.7614 50 70 47.7614 70 45C70 42.2386 67.7614 40 65 40C62.2386 40 60 42.2386 60 45C60 47.7614 62.2386 50 65 50Z" fill="white"/>
<path d="M65 30C67.7614 30 70 27.7614 70 25C70 22.2386 67.7614 20 65 20C62.2386 20 60 22.2386 60 25C60 27.7614 62.2386 30 65 30Z" fill="white"/>
<path d="M65 10C67.7614 10 70 7.76142 70 5C70 2.23858 67.7614 0 65 0C62.2386 0 60 2.23858 60 5C60 7.76142 62.2386 10 65 10Z" fill="white"/>
<path d="M45 50C47.7614 50 50 47.7614 50 45C50 42.2386 47.7614 40 45 40C42.2386 40 40 42.2386 40 45C40 47.7614 42.2386 50 45 50Z" fill="white"/>
<path d="M45 30C47.7614 30 50 27.7614 50 25C50 22.2386 47.7614 20 45 20C42.2386 20 40 22.2386 40 25C40 27.7614 42.2386 30 45 30Z" fill="white"/>
<path d="M45 10C47.7614 10 50 7.76142 50 5C50 2.23858 47.7614 0 45 0C42.2386 0 40 2.23858 40 5C40 7.76142 42.2386 10 45 10Z" fill="white"/>
<path d="M25 50C27.7614 50 30 47.7614 30 45C30 42.2386 27.7614 40 25 40C22.2386 40 20 42.2386 20 45C20 47.7614 22.2386 50 25 50Z" fill="white"/>
<path d="M25 30C27.7614 30 30 27.7614 30 25C30 22.2386 27.7614 20 25 20C22.2386 20 20 22.2386 20 25C20 27.7614 22.2386 30 25 30Z" fill="white"/>
<path d="M25 10C27.7614 10 30 7.76142 30 5C30 2.23858 27.7614 0 25 0C22.2386 0 20 2.23858 20 5C20 7.76142 22.2386 10 25 10Z" fill="white"/>
<path d="M5.00001 50C7.76143 50 10 47.7614 10 45C10 42.2386 7.76143 40 5.00001 40C2.23858 40 0 42.2386 0 45C0 47.7614 2.23858 50 5.00001 50Z" fill="white"/>
<path d="M5.00001 30C7.76143 30 10 27.7614 10 25C10 22.2386 7.76143 20 5.00001 20C2.23858 20 0 22.2386 0 25C0 27.7614 2.23858 30 5.00001 30Z" fill="white"/>
<path d="M5.00001 10C7.76143 10 10 7.76142 10 5C10 2.23858 7.76143 0 5.00001 0C2.23858 0 0 2.23858 0 5C0 7.76142 2.23858 10 5.00001 10Z" fill="white"/>
<path d="M225 50C227.761 50 230 47.7614 230 45C230 42.2386 227.761 40 225 40C222.239 40 220 42.2386 220 45C220 47.7614 222.239 50 225 50Z" fill="white"/>
<path d="M225 30C227.761 30 230 27.7614 230 25C230 22.2386 227.761 20 225 20C222.239 20 220 22.2386 220 25C220 27.7614 222.239 30 225 30Z" fill="white"/>
<path d="M225 10C227.761 10 230 7.76142 230 5C230 2.23858 227.761 0 225 0C222.239 0 220 2.23858 220 5C220 7.76142 222.239 10 225 10Z" fill="white"/>
<path d="M205 50C207.761 50 210 47.7614 210 45C210 42.2386 207.761 40 205 40C202.239 40 200 42.2386 200 45C200 47.7614 202.239 50 205 50Z" fill="white"/>
<path d="M205 30C207.761 30 210 27.7614 210 25C210 22.2386 207.761 20 205 20C202.239 20 200 22.2386 200 25C200 27.7614 202.239 30 205 30Z" fill="white"/>
<path d="M205 10C207.761 10 210 7.76142 210 5C210 2.23858 207.761 0 205 0C202.239 0 200 2.23858 200 5C200 7.76142 202.239 10 205 10Z" fill="white"/>
<path d="M185 50C187.761 50 190 47.7614 190 45C190 42.2386 187.761 40 185 40C182.239 40 180 42.2386 180 45C180 47.7614 182.239 50 185 50Z" fill="white"/>
<path d="M185 30C187.761 30 190 27.7614 190 25C190 22.2386 187.761 20 185 20C182.239 20 180 22.2386 180 25C180 27.7614 182.239 30 185 30Z" fill="white"/>
<path d="M185 10C187.761 10 190 7.76142 190 5C190 2.23858 187.761 0 185 0C182.239 0 180 2.23858 180 5C180 7.76142 182.239 10 185 10Z" fill="white"/>
<path d="M165 50C167.761 50 170 47.7614 170 45C170 42.2386 167.761 40 165 40C162.239 40 160 42.2386 160 45C160 47.7614 162.239 50 165 50Z" fill="white"/>
<path d="M165 30C167.761 30 170 27.7614 170 25C170 22.2386 167.761 20 165 20C162.239 20 160 22.2386 160 25C160 27.7614 162.239 30 165 30Z" fill="white"/>
<path d="M165 10C167.761 10 170 7.76142 170 5C170 2.23858 167.761 0 165 0C162.239 0 160 2.23858 160 5C160 7.76142 162.239 10 165 10Z" fill="white"/>
<path d="M145 50C147.761 50 150 47.7614 150 45C150 42.2386 147.761 40 145 40C142.239 40 140 42.2386 140 45C140 47.7614 142.239 50 145 50Z" fill="white"/>
<path d="M145 30C147.761 30 150 27.7614 150 25C150 22.2386 147.761 20 145 20C142.239 20 140 22.2386 140 25C140 27.7614 142.239 30 145 30Z" fill="white"/>
<path d="M145 10C147.761 10 150 7.76142 150 5C150 2.23858 147.761 0 145 0C142.239 0 140 2.23858 140 5C140 7.76142 142.239 10 145 10Z" fill="white"/>
<path d="M125 50C127.761 50 130 47.7614 130 45C130 42.2386 127.761 40 125 40C122.239 40 120 42.2386 120 45C120 47.7614 122.239 50 125 50Z" fill="white"/>
<path d="M125 30C127.761 30 130 27.7614 130 25C130 22.2386 127.761 20 125 20C122.239 20 120 22.2386 120 25C120 27.7614 122.239 30 125 30Z" fill="white"/>
<path d="M125 10C127.761 10 130 7.76142 130 5C130 2.23858 127.761 0 125 0C122.239 0 120 2.23858 120 5C120 7.76142 122.239 10 125 10Z" fill="white"/>
</g>
</svg>
