<svg width="637" height="636" viewBox="0 0 637 636" fill="none" xmlns="http://www.w3.org/2000/svg">
<path d="M318.11 28.9091C357.976 28.9091 395.445 36.541 430.6 51.7471C465.755 66.9823 496.429 87.5945 522.65 113.583C548.872 139.573 569.571 170.188 584.808 205.341C600.015 240.523 607.617 278.076 607.617 318C607.617 357.922 600.015 395.476 584.808 430.658C569.6 465.841 548.872 496.427 522.65 522.415C496.429 548.405 465.755 569.018 430.6 584.252C395.445 599.487 357.976 607.091 318.11 607.091C278.242 607.091 240.745 599.487 205.619 584.252C170.464 569.018 139.935 548.405 113.972 522.415C88.0115 496.427 67.4274 465.841 52.2201 430.658C37.0128 395.476 29.4091 357.922 29.4091 318C29.4091 278.076 37.0128 240.552 52.2201 205.341C67.4274 170.159 88.0115 139.573 113.972 113.583C139.935 87.5945 170.492 66.9823 205.619 51.7471C240.745 36.5121 278.271 28.9091 318.11 28.9091ZM318.11 0C274.454 0 232.736 8.49924 194.113 25.2376C155.749 41.8604 121.894 64.7274 93.5047 93.1738C65.0858 121.62 42.2748 155.502 25.6803 193.892C8.97106 232.545 0.5 274.318 0.5 318C0.5 361.682 8.97106 403.483 25.6803 442.106C42.2748 480.498 65.0858 514.378 93.5047 542.826C121.951 571.3 155.777 594.167 194.113 610.762C232.709 627.5 274.426 636 318.11 636C361.793 636 403.481 627.5 442.106 610.762C480.384 594.167 514.353 571.359 543.003 542.941C571.74 514.437 594.723 480.527 611.318 442.106C628.029 403.455 636.5 361.682 636.5 318C636.5 274.318 628.029 232.545 611.318 193.892C594.696 155.473 571.711 121.533 543.003 93.059C514.353 64.6695 480.411 41.8313 442.106 25.2376C403.452 8.49924 361.764 0 318.11 0Z" fill="white"/>
</svg>
