<svg width="17" height="31" viewBox="0 0 17 31" fill="none" xmlns="http://www.w3.org/2000/svg">
<path d="M10.9787 8.853C10.9787 6.64769 12.0813 6.64769 13.184 6.64769H14.5071C14.7281 6.65066 14.9473 6.60933 15.152 6.52615C15.3567 6.44298 15.5426 6.31963 15.6989 6.1634C15.8551 6.00718 15.9784 5.82123 16.0616 5.61654C16.1448 5.41186 16.1861 5.19258 16.1832 4.97166V2.89868C16.1832 2.67671 16.1391 2.45695 16.0535 2.25215C15.9679 2.04736 15.8425 1.86161 15.6845 1.70568C15.5265 1.54975 15.3391 1.42676 15.1332 1.34384C14.9273 1.26092 14.707 1.21973 14.4851 1.22265L11.3536 1.17854C10.4417 1.14327 9.5331 1.30628 8.6904 1.65631C7.84769 2.00634 7.09098 2.53506 6.47248 3.20598C5.85397 3.8769 5.38842 4.67403 5.10794 5.54237C4.82747 6.4107 4.73874 7.32956 4.84791 8.23551V11.4332H3.10572C2.66121 11.4332 2.2349 11.6098 1.92059 11.9241C1.60627 12.2384 1.42969 12.6647 1.42969 13.1092V15.1822C1.42969 15.6267 1.60627 16.053 1.92059 16.3673C2.2349 16.6817 2.66121 16.8582 3.10572 16.8582H4.84791V28.7007C4.84791 28.9932 4.96408 29.2736 5.17087 29.4804C5.37765 29.6872 5.65812 29.8034 5.95056 29.8034H9.94216C10.223 29.7865 10.4867 29.6629 10.6794 29.4579C10.8721 29.2529 10.9792 28.9821 10.9787 28.7007V16.8582H12.9193C13.3638 16.8582 13.7901 16.6817 14.1044 16.3673C14.4188 16.053 14.5953 15.6267 14.5953 15.1822V13.1092C14.5953 12.6647 14.4188 12.2384 14.1044 11.9241C13.7901 11.6098 13.3638 11.4332 12.9193 11.4332H10.9787V8.853Z" stroke="white" stroke-width="1.5" stroke-linecap="round" stroke-linejoin="round"/>
</svg>
