<svg width="29" height="31" viewBox="0 0 29 31" fill="none" xmlns="http://www.w3.org/2000/svg">
<path d="M23.9596 13.2583H18.4684C18.3188 13.2583 18.1707 13.2881 18.0328 13.346C17.8949 13.4039 17.7699 13.4887 17.6652 13.5955C17.5605 13.7023 17.4781 13.8289 17.4229 13.9679C17.3677 14.1069 17.3407 14.2555 17.3437 14.405V17.5145C17.3437 17.8128 17.4622 18.0989 17.6731 18.3098C17.884 18.5207 18.1701 18.6392 18.4684 18.6392H21.3132C21.3292 19.4916 21.1652 20.3378 20.8321 21.1225C20.4989 21.9073 20.004 22.613 19.3798 23.1936C18.7555 23.7742 18.0158 24.2166 17.209 24.492C16.4021 24.7675 15.5463 24.8697 14.6973 24.792C9.75743 24.792 7.3757 20.602 7.3757 15.8385C7.3757 11.075 9.93385 6.88497 14.6973 6.88497C16.8003 6.81519 18.8609 7.48646 20.5193 8.78153C20.6519 8.86828 20.8019 8.92482 20.9587 8.94716C21.1155 8.9695 21.2753 8.95709 21.4268 8.91079C21.5783 8.8645 21.7178 8.78547 21.8354 8.67929C21.9529 8.57311 22.0457 8.44238 22.1071 8.29636L23.4965 5.12072C23.6107 4.88666 23.6402 4.62019 23.5799 4.36681C23.5196 4.11343 23.3732 3.88884 23.1657 3.73138C20.6368 2.2192 17.7312 1.45456 14.7855 1.52608C6.75821 1.50403 1.28906 7.74503 1.28906 15.8385C1.28906 23.932 6.78027 30.173 14.6973 30.173C22.6143 30.173 27.3999 24.5274 27.3999 16.9411C27.3999 14.5153 26.4295 13.2583 23.9596 13.2583Z" stroke="white" stroke-width="1.5" stroke-linecap="round" stroke-linejoin="round"/>
</svg>
