<svg width="40" height="40" viewBox="0 0 40 40" fill="none" xmlns="http://www.w3.org/2000/svg">
<circle cx="19.9324" cy="19.9324" r="19.9324" fill="#FDBE14"/>
<path fill-rule="evenodd" clip-rule="evenodd" d="M16.5605 11.8107C17.4319 11.7706 17.7097 11.7617 19.9294 11.7617C22.1491 11.7617 22.4269 11.7714 23.2976 11.8107C24.1682 11.8501 24.7625 11.989 25.2825 12.1904C25.827 12.3961 26.321 12.7178 26.7296 13.1338C27.1456 13.5416 27.4665 14.0349 27.6716 14.5802C27.8736 15.1002 28.0118 15.6945 28.0519 16.5636C28.092 17.4365 28.101 17.7143 28.101 19.9333C28.101 22.153 28.0913 22.4308 28.0519 23.3022C28.0126 24.1714 27.8736 24.7657 27.6716 25.2857C27.4665 25.831 27.1451 26.3251 26.7296 26.7335C26.321 27.1495 25.827 27.4704 25.2825 27.6755C24.7625 27.8775 24.1682 28.0157 23.299 28.0558C22.4269 28.0959 22.1491 28.1049 19.9294 28.1049C17.7097 28.1049 17.4319 28.0952 16.5605 28.0558C15.6913 28.0165 15.097 27.8775 14.577 27.6755C14.0317 27.4704 13.5376 27.149 13.1292 26.7335C12.7134 26.3254 12.3917 25.8316 12.1864 25.2864C11.9851 24.7664 11.847 24.1721 11.8068 23.3029C11.7667 22.4301 11.7578 22.1522 11.7578 19.9333C11.7578 17.7136 11.7675 17.4358 11.8068 16.5651C11.8462 15.6945 11.9851 15.1002 12.1864 14.5802C12.392 14.035 12.714 13.5411 13.1299 13.1331C13.5378 12.7174 14.0313 12.3957 14.5763 12.1904C15.0963 11.989 15.6906 11.8509 16.5597 11.8107H16.5605ZM23.2314 13.2816C22.3697 13.2423 22.1112 13.2341 19.9294 13.2341C17.7476 13.2341 17.4891 13.2423 16.6273 13.2816C15.8302 13.318 15.3979 13.451 15.1096 13.5632C14.7285 13.7118 14.4559 13.8878 14.1699 14.1738C13.8988 14.4376 13.6902 14.7587 13.5593 15.1135C13.4471 15.4018 13.3141 15.8341 13.2777 16.6312C13.2384 17.493 13.2302 17.7515 13.2302 19.9333C13.2302 22.1151 13.2384 22.3736 13.2777 23.2353C13.3141 24.0324 13.4471 24.4648 13.5593 24.753C13.69 25.1074 13.8988 25.429 14.1699 25.6928C14.4336 25.9639 14.7553 26.1727 15.1096 26.3034C15.3979 26.4156 15.8302 26.5485 16.6273 26.5849C17.4891 26.6243 17.7468 26.6325 19.9294 26.6325C22.1119 26.6325 22.3697 26.6243 23.2314 26.5849C24.0285 26.5485 24.4609 26.4156 24.7491 26.3034C25.1302 26.1548 25.4028 25.9788 25.6889 25.6928C25.96 25.429 26.1687 25.1074 26.2995 24.753C26.4117 24.4648 26.5446 24.0324 26.581 23.2353C26.6204 22.3736 26.6286 22.1151 26.6286 19.9333C26.6286 17.7515 26.6204 17.493 26.581 16.6312C26.5446 15.8341 26.4117 15.4018 26.2995 15.1135C26.1509 14.7325 25.9749 14.4598 25.6889 14.1738C25.4251 13.9027 25.104 13.6941 24.7491 13.5632C24.4609 13.451 24.0285 13.318 23.2314 13.2816ZM18.8857 22.4524C19.4685 22.695 20.1176 22.7278 20.722 22.545C21.3263 22.3623 21.8485 21.9754 22.1993 21.4504C22.5501 20.9254 22.7078 20.295 22.6453 19.6667C22.5829 19.0384 22.3043 18.4512 21.8571 18.0055C21.572 17.7206 21.2273 17.5025 20.8478 17.3668C20.4683 17.2311 20.0634 17.1812 19.6623 17.2208C19.2612 17.2603 18.8739 17.3883 18.5282 17.5956C18.1825 17.8028 17.887 18.0841 17.6631 18.4192C17.4392 18.7543 17.2923 19.1349 17.2331 19.5336C17.174 19.9323 17.2039 20.3391 17.3208 20.7248C17.4377 21.1105 17.6387 21.4655 17.9093 21.7643C18.1799 22.063 18.5133 22.298 18.8857 22.4524ZM16.9594 16.9633C17.3494 16.5733 17.8124 16.2639 18.322 16.0528C18.8316 15.8417 19.3778 15.7331 19.9294 15.7331C20.481 15.7331 21.0271 15.8417 21.5367 16.0528C22.0463 16.2639 22.5094 16.5733 22.8994 16.9633C23.2894 17.3533 23.5988 17.8163 23.8099 18.3259C24.0209 18.8355 24.1296 19.3817 24.1296 19.9333C24.1296 20.4849 24.0209 21.031 23.8099 21.5406C23.5988 22.0502 23.2894 22.5133 22.8994 22.9033C22.1117 23.691 21.0433 24.1335 19.9294 24.1335C18.8154 24.1335 17.7471 23.691 16.9594 22.9033C16.1717 22.1156 15.7292 21.0473 15.7292 19.9333C15.7292 18.8193 16.1717 17.751 16.9594 16.9633ZM25.0611 16.3586C25.1578 16.2674 25.2352 16.1578 25.2887 16.0362C25.3422 15.9146 25.3708 15.7834 25.3727 15.6506C25.3746 15.5177 25.3499 15.3858 25.2999 15.2627C25.25 15.1396 25.1759 15.0278 25.0819 14.9338C24.9879 14.8399 24.8761 14.7657 24.753 14.7158C24.6299 14.6658 24.498 14.6411 24.3651 14.643C24.2323 14.6449 24.1011 14.6735 23.9795 14.727C23.8579 14.7805 23.7483 14.8579 23.6571 14.9546C23.4798 15.1425 23.3827 15.3922 23.3865 15.6506C23.3902 15.909 23.4946 16.1557 23.6773 16.3384C23.86 16.5211 24.1067 16.6255 24.3651 16.6292C24.6235 16.633 24.8732 16.5359 25.0611 16.3586Z" fill="white"/>
</svg>
