<svg width="29" height="31" viewBox="0 0 29 31" fill="none" xmlns="http://www.w3.org/2000/svg">
<path d="M7.0449 3.62564C7.05089 4.39602 6.75354 5.13782 6.2171 5.69076C5.68066 6.24371 4.94821 6.5634 4.17801 6.58075C3.4094 6.55255 2.68101 6.23015 2.14334 5.68018C1.60568 5.1302 1.29986 4.39469 1.28906 3.62564C1.32247 2.87636 1.63955 2.16782 2.176 1.64365C2.71246 1.11948 3.42816 0.818904 4.17801 0.802856C4.92567 0.819203 5.63885 1.12052 6.17174 1.64521C6.70463 2.1699 7.01697 2.87833 7.0449 3.62564ZM1.59781 11.8294C1.59781 10.1313 2.6784 10.3959 4.17801 10.3959C5.67762 10.3959 6.73616 10.1313 6.73616 11.8294V28.3691C6.73616 30.0893 5.65556 29.7364 4.17801 29.7364C2.70046 29.7364 1.59781 30.0893 1.59781 28.3691V11.8294Z" stroke="white" stroke-width="1.5" stroke-linecap="round" stroke-linejoin="round"/>
<path d="M11.1875 11.8289C11.1875 10.8807 11.5403 10.5278 12.0917 10.4175C12.643 10.3073 14.5396 10.4175 15.2012 10.4175C15.8627 10.4175 16.1274 11.4981 16.1053 12.3141C16.6712 11.5546 17.4226 10.953 18.2875 10.5669C19.1524 10.1808 20.1019 10.023 21.0452 10.1088C21.9715 10.0522 22.8993 10.191 23.7684 10.5164C24.6375 10.8418 25.4285 11.3463 26.0899 11.9973C26.7512 12.6483 27.2683 13.4311 27.6074 14.295C27.9465 15.1588 28.1 16.0843 28.0581 17.0114V28.3026C28.0581 30.0227 26.9995 29.6698 25.4999 29.6698C24.0003 29.6698 22.9418 30.0227 22.9418 28.3026V19.4813C22.9805 19.0273 22.9211 18.5703 22.7676 18.1413C22.6141 17.7123 22.3701 17.3213 22.0521 16.995C21.7341 16.6686 21.3497 16.4145 20.9248 16.2499C20.4999 16.0853 20.0446 16.0141 19.5897 16.0411C19.137 16.0296 18.6869 16.1144 18.2694 16.2899C17.8519 16.4654 17.4765 16.7275 17.1679 17.059C16.8593 17.3905 16.6247 17.7838 16.4795 18.2128C16.3344 18.6418 16.282 19.0967 16.3259 19.5475V28.3687C16.3259 30.0888 15.2453 29.736 13.7457 29.736C12.246 29.736 11.1875 30.0888 11.1875 28.3687V11.8289Z" stroke="white" stroke-width="1.5" stroke-linecap="round" stroke-linejoin="round"/>
</svg>
