<svg width="40" height="40" viewBox="0 0 40 40" fill="none" xmlns="http://www.w3.org/2000/svg">
<circle cx="19.9324" cy="19.9324" r="19.9324" fill="#FDBE14"/>
<path d="M20.913 11V23.8965C20.913 24.7081 20.681 25.5015 20.2463 26.1763C19.8115 26.8511 19.1936 27.3771 18.4706 27.6876C17.7477 27.9982 16.9521 28.0795 16.1846 27.9212C15.4172 27.7628 14.7122 27.372 14.1588 26.7981C13.6055 26.2242 13.2287 25.4931 13.076 24.6971C12.9234 23.9011 13.0017 23.076 13.3012 22.3262C13.6006 21.5764 14.1078 20.9355 14.7584 20.4847C15.409 20.0338 16.174 19.7931 16.9565 19.7931M26 17.4483C24.6509 17.4483 23.357 16.8924 22.403 15.903C21.449 14.9136 20.913 13.5717 20.913 12.1724" stroke="white" stroke-width="1.5"/>
</svg>
