<svg width="30" height="27" viewBox="0 0 30 27" fill="none" xmlns="http://www.w3.org/2000/svg">
<path d="M8.49018 18.8034C6.91546 20.0403 5.10801 20.9478 3.1754 21.4718C2.96253 21.5491 2.77862 21.69 2.64864 21.8755C2.51867 22.0609 2.44895 22.2819 2.44895 22.5083C2.44895 22.7348 2.51867 22.9558 2.64864 23.1412C2.77862 23.3266 2.96253 23.4676 3.1754 23.5448C18.4361 29.8079 28.1394 20.1266 26.6619 9.38679L29.1318 4.27048H26.2649C22.6923 -0.118069 13.2095 0.102462 14.7753 9.45295C14.7753 9.45295 9.7031 10.3571 3.21951 3.9838C3.06953 3.83572 2.88026 3.73374 2.67411 3.68991C2.46796 3.64609 2.25356 3.66226 2.05632 3.73652C1.85908 3.81077 1.68725 3.94 1.56118 4.10889C1.43512 4.27779 1.36009 4.47928 1.345 4.68949C0.659441 7.50754 1.00252 10.4778 2.31247 13.0653C3.62242 15.6529 5.81315 17.6877 8.49018 18.8034V18.8034Z" stroke="white" stroke-width="1.5" stroke-linecap="round" stroke-linejoin="round"/>
</svg>
