<svg width="40" height="40" viewBox="0 0 40 40" fill="none" xmlns="http://www.w3.org/2000/svg">
<circle cx="19.9324" cy="19.9324" r="19.9324" fill="#FDBE14"/>
<path d="M30 19.4354C30 19.3846 30 19.3269 29.9978 19.2599C29.9955 19.0729 29.9911 18.8629 29.9866 18.639C29.9688 17.9949 29.9375 17.3532 29.8884 16.7484C29.8214 15.9151 29.7232 15.2202 29.5893 14.6985C29.448 14.1541 29.1709 13.6575 28.7859 13.2585C28.4008 12.8595 27.9213 12.572 27.3951 12.4247C26.7634 12.2493 25.5268 12.1408 23.7857 12.0739C22.9576 12.0416 22.0714 12.0208 21.1853 12.0092C20.875 12.0046 20.5871 12.0023 20.3281 12H19.6719C19.4129 12.0023 19.125 12.0046 18.8147 12.0092C17.9286 12.0208 17.0424 12.0416 16.2143 12.0739C14.4732 12.1431 13.2344 12.2516 12.6049 12.4247C12.0786 12.5717 11.5988 12.859 11.2137 13.2581C10.8286 13.6572 10.5517 14.1539 10.4107 14.6985C10.2746 15.2202 10.1786 15.9151 10.1116 16.7484C10.0625 17.3532 10.0312 17.9949 10.0134 18.639C10.0067 18.8629 10.0045 19.0729 10.0022 19.2599C10.0022 19.3269 10 19.3846 10 19.4354V19.5646C10 19.6154 10 19.6731 10.0022 19.7401C10.0045 19.9271 10.0089 20.1371 10.0134 20.361C10.0312 21.0051 10.0625 21.6468 10.1116 22.2516C10.1786 23.0849 10.2768 23.7798 10.4107 24.3015C10.6964 25.4072 11.5357 26.2798 12.6049 26.5753C13.2344 26.7507 14.4732 26.8592 16.2143 26.9261C17.0424 26.9584 17.9286 26.9792 18.8147 26.9908C19.125 26.9954 19.4129 26.9977 19.6719 27H20.3281C20.5871 26.9977 20.875 26.9954 21.1853 26.9908C22.0714 26.9792 22.9576 26.9584 23.7857 26.9261C25.5268 26.8569 26.7656 26.7484 27.3951 26.5753C28.4643 26.2798 29.3036 25.4095 29.5893 24.3015C29.7254 23.7798 29.8214 23.0849 29.8884 22.2516C29.9375 21.6468 29.9688 21.0051 29.9866 20.361C29.9933 20.1371 29.9955 19.9271 29.9978 19.7401C29.9978 19.6731 30 19.6154 30 19.5646V19.4354ZM28.3929 19.5554C28.3929 19.6039 28.3929 19.657 28.3906 19.7193C28.3884 19.8994 28.3839 20.0979 28.3795 20.3126C28.3638 20.9266 28.3326 21.5406 28.2857 22.1108C28.2254 22.8541 28.1406 23.4635 28.0357 23.8721C27.8973 24.4054 27.4911 24.8278 26.9777 24.9686C26.5089 25.0979 25.3281 25.2018 23.7232 25.2641C22.9107 25.2964 22.0357 25.3172 21.1629 25.3287C20.8571 25.3333 20.5737 25.3356 20.3192 25.3356H19.6808L18.8371 25.3287C17.9643 25.3172 17.0915 25.2964 16.2768 25.2641C14.6719 25.1994 13.4888 25.0979 13.0223 24.9686C12.5089 24.8255 12.1027 24.4054 11.9643 23.8721C11.8594 23.4635 11.7746 22.8541 11.7143 22.1108C11.6674 21.5406 11.6384 20.9266 11.6205 20.3126C11.6138 20.0979 11.6116 19.897 11.6094 19.7193C11.6094 19.657 11.6071 19.6016 11.6071 19.5554V19.4446C11.6071 19.3961 11.6071 19.343 11.6094 19.2807C11.6116 19.1006 11.6161 18.9021 11.6205 18.6874C11.6362 18.0734 11.6674 17.4594 11.7143 16.8892C11.7746 16.1459 11.8594 15.5365 11.9643 15.1279C12.1027 14.5946 12.5089 14.1722 13.0223 14.0314C13.4911 13.9021 14.6719 13.7982 16.2768 13.7359C17.0893 13.7036 17.9643 13.6828 18.8371 13.6713C19.1429 13.6667 19.4263 13.6644 19.6808 13.6644H20.3192L21.1629 13.6713C22.0357 13.6828 22.9085 13.7036 23.7232 13.7359C25.3281 13.8006 26.5112 13.9021 26.9777 14.0314C27.4911 14.1745 27.8973 14.5946 28.0357 15.1279C28.1406 15.5365 28.2254 16.1459 28.2857 16.8892C28.3326 17.4594 28.3616 18.0734 28.3795 18.6874C28.3862 18.9021 28.3884 19.103 28.3906 19.2807C28.3906 19.343 28.3929 19.3984 28.3929 19.4446V19.5554ZM18.0134 22.5933L23.192 19.4769L18.0134 16.4067V22.5933Z" fill="white"/>
</svg>
